<svg width="139" height="114" viewBox="0 0 139 114" fill="none" xmlns="http://www.w3.org/2000/svg">
<g filter="url(#filter0_d_165_3)">
<path d="M37.2556 75.1987L34.8853 80.6332C34.6725 81.1238 34.4458 81.546 34.2051 81.8999C33.9644 82.2503 33.6591 82.5201 33.2894 82.7093C32.9196 82.895 32.4347 82.9879 31.8347 82.9879C31.6464 82.9879 31.4423 82.9738 31.2225 82.9458C31.0028 82.9213 30.7987 82.8827 30.6103 82.8302V81.4321C30.7847 81.4987 30.9731 81.5478 31.1754 81.5793C31.3812 81.6073 31.5749 81.6213 31.7562 81.6213C31.9935 81.6213 32.1853 81.581 32.3318 81.5005C32.4783 81.4199 32.5952 81.3112 32.6824 81.1746C32.7696 81.0379 32.8429 80.8855 32.9022 80.7173L30.2545 75.1987H31.9708L33.3993 78.5256C33.4307 78.5957 33.4708 78.6903 33.5196 78.8094C33.5719 78.9251 33.6225 79.0442 33.6713 79.1668C33.7237 79.286 33.7638 79.3911 33.7917 79.4822H33.8493C33.8772 79.3946 33.9138 79.2895 33.9591 79.1668C34.008 79.0407 34.0586 78.9128 34.1109 78.7832C34.1632 78.65 34.2103 78.5309 34.2522 78.4258L35.5812 75.1987H37.2556Z" fill="#C1C1C1"/>
<path d="M43.3306 82.8827H41.7347V78.2103H40.2643C40.1911 79.0722 40.1039 79.8063 40.0027 80.4125C39.9016 81.0187 39.7725 81.5127 39.6155 81.8946C39.4585 82.2731 39.2632 82.5499 39.0295 82.7251C38.7957 82.9003 38.508 82.9879 38.1661 82.9879C37.9777 82.9879 37.8085 82.9738 37.6585 82.9458C37.512 82.9178 37.3777 82.8757 37.2556 82.8197V81.5372C37.3324 81.5688 37.4144 81.5951 37.5016 81.6161C37.5888 81.6336 37.6777 81.6424 37.7684 81.6424C37.8696 81.6424 37.9655 81.6021 38.0562 81.5215C38.1469 81.4409 38.2324 81.3025 38.3126 81.1063C38.3928 80.9065 38.4678 80.6315 38.5376 80.2811C38.6109 79.9307 38.6771 79.4875 38.7364 78.9514C38.7957 78.4153 38.8516 77.767 38.9039 77.0067H43.3306V82.8827Z" fill="#C1C1C1"/>
<path d="M44.173 77.0067H45.9207L47.0248 80.3126C47.0597 80.4177 47.0893 80.5246 47.1137 80.6332C47.1382 80.7419 47.1591 80.854 47.1765 80.9696C47.194 81.0852 47.2079 81.2061 47.2184 81.3323H47.2498C47.2707 81.143 47.2986 80.9661 47.3335 80.8014C47.3719 80.6367 47.419 80.4738 47.4748 80.3126L48.5579 77.0067H50.2689L47.794 83.6343C47.644 84.0408 47.4486 84.3789 47.2079 84.6487C46.9672 84.922 46.6899 85.127 46.3759 85.2636C46.0655 85.4003 45.7236 85.4686 45.3504 85.4686C45.169 85.4686 45.012 85.4581 44.8794 85.4371C44.7469 85.4196 44.6335 85.4003 44.5393 85.3793V84.1073C44.6126 84.1249 44.705 84.1406 44.8166 84.1547C44.9283 84.1687 45.0451 84.1757 45.1672 84.1757C45.3905 84.1757 45.5823 84.1284 45.7428 84.0338C45.9033 83.9392 46.0376 83.8113 46.1457 83.6501C46.2539 83.4924 46.3393 83.319 46.4021 83.1298L46.4963 82.8407L44.173 77.0067Z" fill="#C1C1C1"/>
<path d="M52.5137 77.0067V79.1563C52.5137 79.4121 52.5748 79.6048 52.6968 79.7345C52.8224 79.8606 52.9968 79.9237 53.2201 79.9237C53.5271 79.9237 53.8114 79.8887 54.073 79.8186C54.3381 79.7485 54.605 79.6574 54.8736 79.5453V77.0067H56.4695V82.8827H54.8736V80.5491C54.6189 80.6823 54.3311 80.8049 54.0102 80.917C53.6928 81.0292 53.33 81.0852 52.9218 81.0852C52.3114 81.0852 51.8248 80.9293 51.462 80.6175C51.0992 80.3021 50.9178 79.8273 50.9178 79.1931V77.0067H52.5137Z" fill="#C1C1C1"/>
<path d="M66.8561 77.0067V82.8827H58.1439V77.0067H59.7398V81.6791H61.702V77.0067H63.298V81.6791H65.2601V77.0067H66.8561Z" fill="#C1C1C1"/>
<path d="M70.9479 76.8963C71.4886 76.8963 71.9543 77.0014 72.345 77.2117C72.7357 77.4184 73.0374 77.7197 73.2502 78.1157C73.463 78.5116 73.5694 78.9952 73.5694 79.5663V80.3442H69.7968C69.8142 80.7962 69.9485 81.1518 70.1997 81.4111C70.4543 81.6669 70.8066 81.7948 71.2566 81.7948C71.6299 81.7948 71.9717 81.7562 72.2822 81.6791C72.5927 81.6021 72.9119 81.4864 73.2398 81.3323V82.5726C72.9502 82.7163 72.6468 82.8214 72.3293 82.888C72.0154 82.9546 71.6334 82.9879 71.1834 82.9879C70.5974 82.9879 70.0776 82.8792 69.6241 82.662C69.1741 82.4447 68.82 82.1136 68.5619 81.6686C68.3072 81.2236 68.1799 80.663 68.1799 79.9868C68.1799 79.3 68.295 78.7289 68.5253 78.2734C68.759 77.8143 69.0834 77.471 69.4985 77.2432C69.9136 77.0119 70.3968 76.8963 70.9479 76.8963ZM70.9584 78.0368C70.6479 78.0368 70.3898 78.1367 70.184 78.3364C69.9816 78.5361 69.8648 78.8497 69.8334 79.2772H72.0729C72.0694 79.039 72.0258 78.827 71.9421 78.6413C71.8619 78.4556 71.7398 78.3084 71.5758 78.1998C71.4154 78.0911 71.2095 78.0368 70.9584 78.0368Z" fill="#C1C1C1"/>
<path d="M76.463 77.0067V79.2667H78.6921V77.0067H80.288V82.8827H78.6921V80.4598H76.463V82.8827H74.8671V77.0067H76.463Z" fill="#C1C1C1"/>
<path d="M83.506 77.0067V79.3298C83.506 79.4489 83.5008 79.5996 83.4903 79.7818C83.4833 79.9605 83.4729 80.1427 83.4589 80.3284C83.445 80.5141 83.431 80.6805 83.4171 80.8277C83.4031 80.9749 83.3926 81.0747 83.3857 81.1273L86.0856 77.0067H88.006V82.8827H86.4624V80.5386C86.4624 80.3459 86.4694 80.1339 86.4833 79.9027C86.4973 79.6679 86.513 79.4472 86.5304 79.2404C86.5478 79.0337 86.5601 78.8778 86.567 78.7727L83.8775 82.8827H81.9624V77.0067H83.506Z" fill="#C1C1C1"/>
<path d="M92.0978 76.8963C92.6385 76.8963 93.1042 77.0014 93.4949 77.2117C93.8856 77.4184 94.1873 77.7197 94.4001 78.1157C94.6129 78.5116 94.7193 78.9952 94.7193 79.5663V80.3442H90.9467C90.9641 80.7962 91.0984 81.1518 91.3496 81.4111C91.6042 81.6669 91.9565 81.7948 92.4065 81.7948C92.7798 81.7948 93.1217 81.7562 93.4321 81.6791C93.7426 81.6021 94.0618 81.4864 94.3897 81.3323V82.5726C94.1001 82.7163 93.7967 82.8214 93.4792 82.888C93.1653 82.9546 92.7833 82.9879 92.3333 82.9879C91.7472 82.9879 91.2275 82.8792 90.774 82.662C90.324 82.4447 89.9699 82.1136 89.7118 81.6686C89.4571 81.2236 89.3298 80.663 89.3298 79.9868C89.3298 79.3 89.4449 78.7289 89.6752 78.2734C89.9089 77.8143 90.2333 77.471 90.6484 77.2432C91.0635 77.0119 91.5467 76.8963 92.0978 76.8963ZM92.1083 78.0368C91.7978 78.0368 91.5397 78.1367 91.3339 78.3364C91.1315 78.5361 91.0147 78.8497 90.9833 79.2772H93.2228C93.2193 79.039 93.1757 78.827 93.092 78.6413C93.0118 78.4556 92.8897 78.3084 92.7257 78.1998C92.5653 78.0911 92.3595 78.0368 92.1083 78.0368Z" fill="#C1C1C1"/>
<path d="M2.73138 97.5192C2.15232 97.5192 1.65871 97.4141 1.25057 97.2039C0.842437 96.9902 0.531974 96.6608 0.319184 96.2158C0.106394 95.7708 0 95.2014 0 94.5076C0 93.7893 0.120348 93.2042 0.361044 92.7522C0.605229 92.2967 0.941856 91.9621 1.37092 91.7483C1.80348 91.5346 2.30406 91.4277 2.87266 91.4277C3.27731 91.4277 3.62614 91.468 3.91917 91.5486C4.21568 91.6257 4.47382 91.7185 4.69358 91.8272L4.22265 93.0675C3.97149 92.9659 3.73777 92.8836 3.52149 92.8205C3.30522 92.7539 3.08894 92.7206 2.87266 92.7206C2.59359 92.7206 2.36162 92.7872 2.17673 92.9204C1.99185 93.05 1.85406 93.2462 1.76336 93.509C1.67267 93.7718 1.62732 94.1012 1.62732 94.4971C1.62732 94.8861 1.67616 95.2084 1.77383 95.4642C1.8715 95.72 2.01278 95.9109 2.19766 96.0371C2.38255 96.1597 2.60754 96.2211 2.87266 96.2211C3.20405 96.2211 3.49882 96.1773 3.75696 96.0897C4.0151 95.9986 4.26626 95.8724 4.51044 95.7112V97.083C4.26626 97.2372 4.00986 97.3476 3.74126 97.4141C3.47615 97.4842 3.13952 97.5192 2.73138 97.5192Z" fill="#C1C1C1"/>
<path d="M11.1872 91.5381V97.4141H9.586V92.7417H7.46682V97.4141H5.8709V91.5381H11.1872Z" fill="#C1C1C1"/>
<path d="M18.1778 94.4656C18.1778 94.9561 18.1115 95.3906 17.979 95.769C17.8499 96.1475 17.6598 96.4681 17.4086 96.7309C17.161 96.9902 16.861 97.1864 16.5086 97.3195C16.1598 97.4527 15.7656 97.5192 15.3261 97.5192C14.9145 97.5192 14.536 97.4527 14.1906 97.3195C13.8488 97.1864 13.5505 96.9902 13.2959 96.7309C13.0447 96.4681 12.8494 96.1475 12.7098 95.769C12.5738 95.3906 12.5058 94.9561 12.5058 94.4656C12.5058 93.8139 12.6209 93.262 12.8511 92.81C13.0813 92.358 13.4092 92.0146 13.8348 91.7798C14.2604 91.5451 14.768 91.4277 15.3575 91.4277C15.9052 91.4277 16.39 91.5451 16.8121 91.7798C17.2377 92.0146 17.5708 92.358 17.8115 92.81C18.0557 93.262 18.1778 93.8139 18.1778 94.4656ZM14.1331 94.4656C14.1331 94.851 14.1749 95.1751 14.2587 95.4379C14.3424 95.7007 14.4732 95.8987 14.6511 96.0318C14.829 96.165 15.061 96.2316 15.347 96.2316C15.6296 96.2316 15.8581 96.165 16.0325 96.0318C16.2104 95.8987 16.3395 95.7007 16.4197 95.4379C16.5034 95.1751 16.5453 94.851 16.5453 94.4656C16.5453 94.0767 16.5034 93.7543 16.4197 93.4985C16.3395 93.2392 16.2104 93.0448 16.0325 92.9151C15.8546 92.7855 15.6226 92.7206 15.3366 92.7206C14.9145 92.7206 14.6075 92.8661 14.4156 93.1569C14.2273 93.4477 14.1331 93.8839 14.1331 94.4656Z" fill="#C1C1C1"/>
<path d="M21.872 97.5192C21.2929 97.5192 20.7993 97.4141 20.3912 97.2039C19.983 96.9902 19.6726 96.6608 19.4598 96.2158C19.247 95.7708 19.1406 95.2014 19.1406 94.5076C19.1406 93.7893 19.261 93.2042 19.5017 92.7522C19.7458 92.2967 20.0825 91.9621 20.5115 91.7483C20.9441 91.5346 21.4447 91.4277 22.0133 91.4277C22.4179 91.4277 22.7668 91.468 23.0598 91.5486C23.3563 91.6257 23.6144 91.7185 23.8342 91.8272L23.3633 93.0675C23.1121 92.9659 22.8784 92.8836 22.6621 92.8205C22.4458 92.7539 22.2295 92.7206 22.0133 92.7206C21.7342 92.7206 21.5022 92.7872 21.3173 92.9204C21.1325 93.05 20.9947 93.2462 20.904 93.509C20.8133 93.7718 20.7679 94.1012 20.7679 94.4971C20.7679 94.8861 20.8168 95.2084 20.9144 95.4642C21.0121 95.72 21.1534 95.9109 21.3383 96.0371C21.5232 96.1597 21.7482 96.2211 22.0133 96.2211C22.3447 96.2211 22.6394 96.1773 22.8976 96.0897C23.1557 95.9986 23.4069 95.8724 23.6511 95.7112V97.083C23.4069 97.2372 23.1505 97.3476 22.8819 97.4141C22.6168 97.4842 22.2801 97.5192 21.872 97.5192Z" fill="#C1C1C1"/>
<path d="M30.3278 94.4656C30.3278 94.9561 30.2615 95.3906 30.1289 95.769C29.9999 96.1475 29.8097 96.4681 29.5586 96.7309C29.3109 96.9902 29.0109 97.1864 28.6586 97.3195C28.3098 97.4527 27.9156 97.5192 27.476 97.5192C27.0644 97.5192 26.6859 97.4527 26.3406 97.3195C25.9987 97.1864 25.7005 96.9902 25.4458 96.7309C25.1947 96.4681 24.9993 96.1475 24.8598 95.769C24.7237 95.3906 24.6557 94.9561 24.6557 94.4656C24.6557 93.8139 24.7708 93.262 25.001 92.81C25.2313 92.358 25.5592 92.0146 25.9848 91.7798C26.4103 91.5451 26.9179 91.4277 27.5074 91.4277C28.0551 91.4277 28.54 91.5451 28.9621 91.7798C29.3877 92.0146 29.7208 92.358 29.9615 92.81C30.2057 93.262 30.3278 93.8139 30.3278 94.4656ZM26.283 94.4656C26.283 94.851 26.3249 95.1751 26.4086 95.4379C26.4923 95.7007 26.6231 95.8987 26.801 96.0318C26.9789 96.165 27.2109 96.2316 27.497 96.2316C27.7795 96.2316 28.008 96.165 28.1824 96.0318C28.3603 95.8987 28.4894 95.7007 28.5696 95.4379C28.6534 95.1751 28.6952 94.851 28.6952 94.4656C28.6952 94.0767 28.6534 93.7543 28.5696 93.4985C28.4894 93.2392 28.3603 93.0448 28.1824 92.9151C28.0045 92.7855 27.7725 92.7206 27.4865 92.7206C27.0644 92.7206 26.7574 92.8661 26.5656 93.1569C26.3772 93.4477 26.283 93.8839 26.283 94.4656Z" fill="#C1C1C1"/>
<path d="M31.2906 93.8927C31.2906 93.0272 31.3969 92.2914 31.6097 91.6852C31.8225 91.0791 32.1609 90.5955 32.6248 90.2346C33.0888 89.8702 33.6975 89.6232 34.451 89.4936C34.8277 89.427 35.2097 89.3727 35.5969 89.3306C35.9876 89.2851 36.3923 89.2343 36.8109 89.1782L36.994 90.5815C36.8126 90.6025 36.6155 90.6253 36.4027 90.6498C36.1899 90.6744 35.9754 90.7007 35.7591 90.7287C35.5429 90.7532 35.3336 90.7795 35.1312 90.8075C34.9289 90.832 34.7458 90.8566 34.5818 90.8811C34.226 90.9372 33.9295 91.0248 33.6923 91.1439C33.4551 91.263 33.2737 91.4522 33.1481 91.7115C33.0225 91.9708 32.9458 92.344 32.9179 92.831H32.9964C33.0801 92.6979 33.1987 92.563 33.3522 92.4263C33.5057 92.2862 33.6958 92.1705 33.9225 92.0794C34.1493 91.9848 34.4109 91.9375 34.7074 91.9375C35.1748 91.9375 35.5795 92.0339 35.9213 92.2266C36.2632 92.4193 36.5266 92.7066 36.7115 93.0886C36.8998 93.467 36.994 93.94 36.994 94.5076C36.994 95.1734 36.8719 95.7305 36.6277 96.179C36.387 96.624 36.0522 96.9586 35.6231 97.1829C35.194 97.4071 34.6969 97.5192 34.1318 97.5192C33.6993 97.5192 33.3086 97.4404 32.9597 97.2827C32.6109 97.1251 32.3109 96.892 32.0597 96.5837C31.8121 96.2754 31.6219 95.8969 31.4894 95.4484C31.3568 94.9964 31.2906 94.4779 31.2906 93.8927ZM34.226 96.2211C34.4527 96.2211 34.6498 96.172 34.8173 96.0739C34.9882 95.9723 35.1208 95.8076 35.215 95.5798C35.3126 95.3486 35.3615 95.0385 35.3615 94.6495C35.3615 94.18 35.283 93.8086 35.126 93.5353C34.9725 93.2585 34.7091 93.1201 34.3359 93.1201C34.1091 93.1201 33.8964 93.1762 33.6975 93.2883C33.5022 93.3969 33.3365 93.523 33.2004 93.6667C33.0644 93.8069 32.9702 93.926 32.9179 94.0241C32.9179 94.3009 32.9388 94.5707 32.9807 94.8335C33.026 95.0928 33.0975 95.3276 33.1952 95.5378C33.2929 95.748 33.4254 95.9145 33.5929 96.0371C33.7638 96.1597 33.9748 96.2211 34.226 96.2211Z" fill="#C1C1C1"/>
<path d="M39.9085 91.5381V93.7981H42.1376V91.5381H43.7335V97.4141H42.1376V94.9912H39.9085V97.4141H38.3126V91.5381H39.9085Z" fill="#C1C1C1"/>
<path d="M50.7242 94.4656C50.7242 94.9561 50.6579 95.3906 50.5253 95.769C50.3963 96.1475 50.2062 96.4681 49.955 96.7309C49.7073 96.9902 49.4073 97.1864 49.055 97.3195C48.7062 97.4527 48.312 97.5192 47.8724 97.5192C47.4608 97.5192 47.0823 97.4527 46.737 97.3195C46.3951 97.1864 46.0969 96.9902 45.8422 96.7309C45.5911 96.4681 45.3957 96.1475 45.2562 95.769C45.1201 95.3906 45.0521 94.9561 45.0521 94.4656C45.0521 93.8139 45.1672 93.262 45.3975 92.81C45.6277 92.358 45.9556 92.0146 46.3812 91.7798C46.8068 91.5451 47.3143 91.4277 47.9038 91.4277C48.4515 91.4277 48.9364 91.5451 49.3585 91.7798C49.7841 92.0146 50.1172 92.358 50.3579 92.81C50.6021 93.262 50.7242 93.8139 50.7242 94.4656ZM46.6794 94.4656C46.6794 94.851 46.7213 95.1751 46.805 95.4379C46.8887 95.7007 47.0195 95.8987 47.1975 96.0318C47.3754 96.165 47.6073 96.2316 47.8934 96.2316C48.1759 96.2316 48.4044 96.165 48.5788 96.0318C48.7567 95.8987 48.8858 95.7007 48.966 95.4379C49.0498 95.1751 49.0916 94.851 49.0916 94.4656C49.0916 94.0767 49.0498 93.7543 48.966 93.4985C48.8858 93.2392 48.7567 93.0448 48.5788 92.9151C48.4009 92.7855 48.169 92.7206 47.8829 92.7206C47.4608 92.7206 47.1538 92.8661 46.962 93.1569C46.7736 93.4477 46.6794 93.8839 46.6794 94.4656Z" fill="#C1C1C1"/>
<path d="M54.4183 97.5192C53.8393 97.5192 53.3457 97.4141 52.9375 97.2039C52.5294 96.9902 52.2189 96.6608 52.0062 96.2158C51.7934 95.7708 51.687 95.2014 51.687 94.5076C51.687 93.7893 51.8073 93.2042 52.048 92.7522C52.2922 92.2967 52.6288 91.9621 53.0579 91.7483C53.4905 91.5346 53.991 91.4277 54.5596 91.4277C54.9643 91.4277 55.3131 91.468 55.6061 91.5486C55.9027 91.6257 56.1608 91.7185 56.3806 91.8272L55.9096 93.0675C55.6585 92.9659 55.4247 92.8836 55.2085 92.8205C54.9922 92.7539 54.7759 92.7206 54.5596 92.7206C54.2806 92.7206 54.0486 92.7872 53.8637 92.9204C53.6788 93.05 53.541 93.2462 53.4503 93.509C53.3596 93.7718 53.3143 94.1012 53.3143 94.4971C53.3143 94.8861 53.3631 95.2084 53.4608 95.4642C53.5585 95.72 53.6997 95.9109 53.8846 96.0371C54.0695 96.1597 54.2945 96.2211 54.5596 96.2211C54.891 96.2211 55.1858 96.1773 55.4439 96.0897C55.7021 95.9986 55.9532 95.8724 56.1974 95.7112V97.083C55.9532 97.2372 55.6968 97.3476 55.4282 97.4141C55.1631 97.4842 54.8265 97.5192 54.4183 97.5192Z" fill="#C1C1C1"/>
<path d="M62.398 92.7417H60.4829V97.4141H58.8869V92.7417H56.9666V91.5381H62.398V92.7417Z" fill="#C1C1C1"/>
<path d="M65.9038 91.4277C66.4445 91.4277 66.9101 91.5328 67.3008 91.743C67.6915 91.9498 67.9933 92.2511 68.2061 92.6471C68.4189 93.043 68.5253 93.5265 68.5253 94.0977V94.8755H64.7526C64.7701 95.3276 64.9043 95.6832 65.1555 95.9425C65.4102 96.1983 65.7625 96.3262 66.2125 96.3262C66.5857 96.3262 66.9276 96.2876 67.2381 96.2105C67.5485 96.1335 67.8677 96.0178 68.1956 95.8636V97.104C67.9061 97.2477 67.6026 97.3528 67.2851 97.4194C66.9712 97.486 66.5892 97.5192 66.1392 97.5192C65.5532 97.5192 65.0334 97.4106 64.5799 97.1934C64.1299 96.9761 63.7759 96.645 63.5177 96.2C63.2631 95.755 63.1357 95.1944 63.1357 94.5181C63.1357 93.8314 63.2509 93.2603 63.4811 92.8047C63.7148 92.3457 64.0392 92.0023 64.4543 91.7746C64.8695 91.5433 65.3526 91.4277 65.9038 91.4277ZM65.9142 92.5682C65.6038 92.5682 65.3456 92.6681 65.1398 92.8678C64.9375 93.0675 64.8206 93.3811 64.7892 93.8086H67.0287C67.0253 93.5703 66.9817 93.3584 66.8979 93.1726C66.8177 92.9869 66.6956 92.8398 66.5317 92.7312C66.3712 92.6225 66.1654 92.5682 65.9142 92.5682Z" fill="#C1C1C1"/>
<path d="M71.3665 91.5381V93.8612C71.3665 93.9803 71.3613 94.131 71.3508 94.3132C71.3438 94.4919 71.3334 94.6741 71.3194 94.8598C71.3055 95.0455 71.2915 95.2119 71.2776 95.3591C71.2636 95.5063 71.2532 95.6061 71.2462 95.6587L73.9462 91.5381H75.8665V97.4141H74.3229V95.07C74.3229 94.8773 74.3299 94.6653 74.3438 94.4341C74.3578 94.1993 74.3735 93.9786 74.3909 93.7718C74.4084 93.5651 74.4206 93.4092 74.4276 93.304L71.738 97.4141H69.8229V91.5381H71.3665ZM75.427 89.01C75.3886 89.3814 75.284 89.709 75.113 89.9929C74.9421 90.2767 74.6752 90.4974 74.3124 90.6551C73.9496 90.8128 73.4613 90.8916 72.8473 90.8916C72.2159 90.8916 71.7241 90.8163 71.3718 90.6656C71.0194 90.5114 70.7683 90.2942 70.6183 90.0139C70.4683 89.7301 70.3776 89.3954 70.3462 89.01H71.7747C71.8061 89.406 71.9055 89.6688 72.0729 89.7984C72.2404 89.9245 72.509 89.9876 72.8787 89.9876C73.1857 89.9876 73.4369 89.9175 73.6322 89.7774C73.8276 89.6372 73.9444 89.3814 73.9828 89.01H75.427Z" fill="#C1C1C1"/>
<path d="M83.5845 91.4277C84.2438 91.4277 84.7758 91.6852 85.1804 92.2003C85.5886 92.7154 85.7926 93.4705 85.7926 94.4656C85.7926 95.1313 85.6967 95.692 85.5048 96.1475C85.313 96.5995 85.0479 96.9411 84.7095 97.1724C84.3711 97.4036 83.9822 97.5192 83.5426 97.5192C83.2601 97.5192 83.0176 97.4842 82.8153 97.4141C82.613 97.3405 82.4403 97.2477 82.2973 97.1356C82.1543 97.0199 82.0304 96.8973 81.9258 96.7677H81.8421C81.87 96.9078 81.8909 97.0515 81.9048 97.1986C81.9188 97.3458 81.9258 97.4895 81.9258 97.6296V100H80.3298V91.5381H81.6275L81.8525 92.3002H81.9258C82.0304 92.1425 82.1578 91.9971 82.3078 91.8639C82.4578 91.7308 82.6374 91.6257 82.8467 91.5486C83.0595 91.468 83.3054 91.4277 83.5845 91.4277ZM83.0717 92.7101C82.7926 92.7101 82.5711 92.768 82.4072 92.8836C82.2432 92.9992 82.1229 93.1726 82.0461 93.4039C81.9729 93.6352 81.9328 93.9277 81.9258 94.2816V94.4551C81.9258 94.8335 81.9607 95.1541 82.0304 95.4169C82.1037 95.6797 82.224 95.8794 82.3915 96.0161C82.5624 96.1527 82.7961 96.2211 83.0926 96.2211C83.3368 96.2211 83.5374 96.1527 83.6944 96.0161C83.8513 95.8794 83.9682 95.6797 84.045 95.4169C84.1252 95.1506 84.1653 94.8265 84.1653 94.4446C84.1653 93.8699 84.0763 93.4372 83.8984 93.1464C83.7205 92.8556 83.445 92.7101 83.0717 92.7101Z" fill="#C1C1C1"/>
<path d="M89.5234 91.4277C90.0641 91.4277 90.5298 91.5328 90.9205 91.743C91.3112 91.9498 91.6129 92.2511 91.8257 92.6471C92.0385 93.043 92.1449 93.5265 92.1449 94.0977V94.8755H88.3723C88.3897 95.3276 88.524 95.6832 88.7752 95.9425C89.0298 96.1983 89.3821 96.3262 89.8321 96.3262C90.2054 96.3262 90.5472 96.2876 90.8577 96.2105C91.1682 96.1335 91.4874 96.0178 91.8153 95.8636V97.104C91.5257 97.2477 91.2222 97.3528 90.9048 97.4194C90.5909 97.486 90.2089 97.5192 89.7589 97.5192C89.1728 97.5192 88.6531 97.4106 88.1996 97.1934C87.7496 96.9761 87.3955 96.645 87.1374 96.2C86.8827 95.755 86.7554 95.1944 86.7554 94.5181C86.7554 93.8314 86.8705 93.2603 87.1008 92.8047C87.3345 92.3457 87.6589 92.0023 88.074 91.7746C88.4891 91.5433 88.9723 91.4277 89.5234 91.4277ZM89.5339 92.5682C89.2234 92.5682 88.9653 92.6681 88.7595 92.8678C88.5571 93.0675 88.4403 93.3811 88.4089 93.8086H90.6484C90.6449 93.5703 90.6013 93.3584 90.5176 93.1726C90.4374 92.9869 90.3153 92.8398 90.1513 92.7312C89.9909 92.6225 89.785 92.5682 89.5339 92.5682Z" fill="#C1C1C1"/>
<path d="M93.0868 93.8927C93.0868 93.0272 93.1932 92.2914 93.406 91.6852C93.6187 91.0791 93.9571 90.5955 94.4211 90.2346C94.885 89.8702 95.4937 89.6232 96.2472 89.4936C96.624 89.427 97.0059 89.3727 97.3931 89.3306C97.7838 89.2851 98.1885 89.2343 98.6071 89.1782L98.7902 90.5815C98.6088 90.6025 98.4117 90.6253 98.199 90.6498C97.9862 90.6744 97.7716 90.7007 97.5554 90.7287C97.3391 90.7532 97.1298 90.7795 96.9275 90.8075C96.7251 90.832 96.542 90.8566 96.378 90.8811C96.0222 90.9372 95.7257 91.0248 95.4885 91.1439C95.2513 91.263 95.0699 91.4522 94.9443 91.7115C94.8187 91.9708 94.742 92.344 94.7141 92.831H94.7926C94.8763 92.6979 94.9949 92.563 95.1484 92.4263C95.3019 92.2862 95.492 92.1705 95.7187 92.0794C95.9455 91.9848 96.2071 91.9375 96.5036 91.9375C96.9711 91.9375 97.3757 92.0339 97.7176 92.2266C98.0594 92.4193 98.3228 92.7066 98.5077 93.0886C98.696 93.467 98.7902 93.94 98.7902 94.5076C98.7902 95.1734 98.6681 95.7305 98.424 96.179C98.1833 96.624 97.8484 96.9586 97.4193 97.1829C96.9902 97.4071 96.4931 97.5192 95.928 97.5192C95.4955 97.5192 95.1048 97.4404 94.756 97.2827C94.4071 97.1251 94.1071 96.892 93.8559 96.5837C93.6083 96.2754 93.4182 95.8969 93.2856 95.4484C93.1531 94.9964 93.0868 94.4779 93.0868 93.8927ZM96.0222 96.2211C96.249 96.2211 96.4461 96.172 96.6135 96.0739C96.7844 95.9723 96.917 95.8076 97.0112 95.5798C97.1088 95.3486 97.1577 95.0385 97.1577 94.6495C97.1577 94.18 97.0792 93.8086 96.9222 93.5353C96.7687 93.2585 96.5054 93.1201 96.1321 93.1201C95.9054 93.1201 95.6926 93.1762 95.4937 93.2883C95.2984 93.3969 95.1327 93.523 94.9966 93.6667C94.8606 93.8069 94.7664 93.926 94.7141 94.0241C94.7141 94.3009 94.735 94.5707 94.7769 94.8335C94.8222 95.0928 94.8937 95.3276 94.9914 95.5378C95.0891 95.748 95.2216 95.9145 95.3891 96.0371C95.56 96.1597 95.7711 96.2211 96.0222 96.2211Z" fill="#C1C1C1"/>
<path d="M102.521 91.4277C103.062 91.4277 103.527 91.5328 103.918 91.743C104.309 91.9498 104.611 92.2511 104.823 92.6471C105.036 93.043 105.143 93.5265 105.143 94.0977V94.8755H101.37C101.387 95.3276 101.522 95.6832 101.773 95.9425C102.027 96.1983 102.38 96.3262 102.83 96.3262C103.203 96.3262 103.545 96.2876 103.855 96.2105C104.166 96.1335 104.485 96.0178 104.813 95.8636V97.104C104.523 97.2477 104.22 97.3528 103.902 97.4194C103.588 97.486 103.206 97.5192 102.756 97.5192C102.17 97.5192 101.651 97.4106 101.197 97.1934C100.747 96.9761 100.393 96.645 100.135 96.2C99.8803 95.755 99.753 95.1944 99.753 94.5181C99.753 93.8314 99.8681 93.2603 100.098 92.8047C100.332 92.3457 100.657 92.0023 101.072 91.7746C101.487 91.5433 101.97 91.4277 102.521 91.4277ZM102.531 92.5682C102.221 92.5682 101.963 92.6681 101.757 92.8678C101.555 93.0675 101.438 93.3811 101.406 93.8086H103.646C103.643 93.5703 103.599 93.3584 103.515 93.1726C103.435 92.9869 103.313 92.8398 103.149 92.7312C102.988 92.6225 102.783 92.5682 102.531 92.5682ZM100.648 90.0296C100.648 89.7809 100.718 89.6004 100.857 89.4883C101 89.3762 101.173 89.3201 101.375 89.3201C101.574 89.3201 101.747 89.3762 101.893 89.4883C102.04 89.6004 102.113 89.7809 102.113 90.0296C102.113 90.2644 102.04 90.4396 101.893 90.5552C101.747 90.6709 101.574 90.7287 101.375 90.7287C101.173 90.7287 101 90.6709 100.857 90.5552C100.718 90.4396 100.648 90.2644 100.648 90.0296ZM102.756 90.0296C102.756 89.7809 102.826 89.6004 102.966 89.4883C103.109 89.3762 103.285 89.3201 103.494 89.3201C103.693 89.3201 103.866 89.3762 104.012 89.4883C104.162 89.6004 104.237 89.7809 104.237 90.0296C104.237 90.2644 104.162 90.4396 104.012 90.5552C103.866 90.6709 103.693 90.7287 103.494 90.7287C103.285 90.7287 103.109 90.6709 102.966 90.5552C102.826 90.4396 102.756 90.2644 102.756 90.0296Z" fill="#C1C1C1"/>
<path d="M108.036 91.5381V93.7981H110.265V91.5381H111.861V97.4141H110.265V94.9912H108.036V97.4141H106.44V91.5381H108.036Z" fill="#C1C1C1"/>
<path d="M117.371 91.5381H119.129L116.811 94.3552L119.333 97.4141H117.523L115.131 94.4341V97.4141H113.536V91.5381H115.131V94.392L117.371 91.5381Z" fill="#C1C1C1"/>
<path d="M122.567 91.4172C123.352 91.4172 123.953 91.5889 124.372 91.9323C124.791 92.2757 125 92.7977 125 93.4985V97.4141H123.885L123.577 96.6152H123.535C123.367 96.8255 123.197 96.9972 123.022 97.1303C122.848 97.2635 122.647 97.3616 122.42 97.4246C122.194 97.4877 121.918 97.5192 121.594 97.5192C121.248 97.5192 120.938 97.4527 120.662 97.3195C120.39 97.1864 120.176 96.9831 120.019 96.7098C119.862 96.433 119.783 96.0826 119.783 95.6587C119.783 95.035 120.001 94.576 120.437 94.2816C120.873 93.9838 121.527 93.8191 122.399 93.7876L123.415 93.7561V93.4985C123.415 93.1902 123.334 92.9642 123.174 92.8205C123.013 92.6769 122.79 92.605 122.504 92.605C122.222 92.605 121.944 92.6453 121.672 92.7259C121.4 92.8065 121.128 92.9081 120.856 93.0307L120.327 91.948C120.638 91.7834 120.985 91.6537 121.369 91.5591C121.756 91.4645 122.155 91.4172 122.567 91.4172ZM123.415 94.6916L122.797 94.7126C122.281 94.7266 121.922 94.8195 121.719 94.9912C121.52 95.1629 121.421 95.3889 121.421 95.6692C121.421 95.9145 121.492 96.0897 121.635 96.1948C121.779 96.2964 121.965 96.3472 122.195 96.3472C122.537 96.3472 122.825 96.2456 123.059 96.0424C123.296 95.8391 123.415 95.5501 123.415 95.1751V94.6916Z" fill="#C1C1C1"/>
<path fill-rule="evenodd" clip-rule="evenodd" d="M82.1903 36.7471C82.7274 35.9735 83.0807 35.0849 83.2223 34.1504C83.4615 32.7515 83.2539 31.3119 82.6297 30.0404C83.3126 28.5156 83.1556 26.6254 82.1666 24.7392C81.6905 23.8409 80.959 23.1078 80.0667 22.6346C79.6115 19.9661 77.1977 17.3413 73.8929 16.0864C72.2033 15.4127 70.3606 15.2324 68.5748 15.5662C63.9827 13.271 57.907 13.4854 54.1705 15.9038C53.4746 16.348 52.8554 16.9047 52.3376 17.5517C46.3836 19.0289 43.4007 23.0317 42.4038 26.546C41.6541 29.1748 42.0662 31.6566 43.4988 33.1457C44.6527 34.345 46.3679 34.8294 48.4088 34.5475C48.784 35.3836 49.3838 36.0963 50.1397 36.6045C51.1052 37.2795 52.9774 37.6171 54.1116 37.6171C54.507 37.6165 54.9014 37.5766 55.2891 37.4979C55.4061 37.7411 55.5372 37.9771 55.6816 38.2048C57.2044 40.6827 59.5711 40.4087 61.5689 39.8368L67.5268 48.438L70.9179 48.3188L69.5991 43.649C73.1315 44.6536 79.7214 43.1288 79.4113 38.9314C79.6579 38.8447 79.8968 38.7371 80.1256 38.6098C80.9465 38.1581 81.6531 37.5206 82.1903 36.7471ZM79.0698 32.5948C79.6664 32.5948 80.2539 32.4472 80.7811 32.1649C80.869 32.6829 80.8664 33.2124 80.7732 33.7295C80.6879 34.2925 80.4762 34.8283 80.1544 35.2957C79.8326 35.7631 79.4092 36.1497 78.9168 36.4258C77.6255 37.1405 75.6787 36.7792 74.3875 35.5879C73.5475 34.8215 72.3387 33.0743 73.63 30.0563L71.7892 29.3177C70.5568 31.7003 70.4665 33.8764 71.3967 35.6713C67.4836 35.3536 65.4074 35.977 62.5422 36.8626C62.2965 36.9404 62.0514 37.0235 61.8086 37.1057C60.1938 37.6529 58.6854 38.164 57.8324 36.8626C57.1456 35.8103 56.7295 34.7659 57.8324 33.5746C59.6439 31.6108 61.5644 31.682 63.5145 31.7543C64.8728 31.8047 66.2453 31.8556 67.6053 31.2198L67.1893 29.7029C65.9659 29.8902 64.6929 29.8441 63.4384 29.7986C62.3788 29.7603 61.3324 29.7224 60.3404 29.826L60.4778 26.9431L59.1865 27.0026L57.9187 30.4891C57.1797 30.8836 56.5425 31.448 56.0584 32.1371C55.4124 32.9709 55.0051 33.9681 54.8809 35.02C52.42 35.5164 51.0699 34.8334 50.6577 33.5071L51.4427 30.9021L50.5753 30.1596L47.9457 32.2443C46.9645 32.3277 45.9244 32.153 45.2454 31.4501C44.3819 30.5567 44.1817 28.8928 44.7037 27.0503C45.3827 24.6399 47.2588 22.0429 51.011 20.4545C50.9096 20.963 50.8583 21.4804 50.8579 21.9992C50.8606 22.6449 50.9612 23.2864 51.1562 23.9013L49.9788 27.0781L51.1955 27.6856L52.42 26.0973C53.0513 26.7859 53.8712 27.2684 54.7749 27.4831L55.607 25.8471C54.1862 25.5096 53.1304 23.3612 53.1304 21.9992C53.1024 21.159 53.3 20.3268 53.7022 19.5912C54.1045 18.8556 54.6963 18.2441 55.4147 17.8217C58.0718 16.0904 62.4794 15.9474 65.6193 16.8091C64.869 17.3236 64.2062 17.958 63.6569 18.6874C63.3131 19.1405 63.0221 19.6322 62.7895 20.1527C61.8279 21.3281 59.8184 21.4075 58.5507 20.4466L57.4203 21.2407C58.6174 23.3017 60.7604 23.4208 62.3539 22.9364C62.6015 24.3625 63.3279 25.6584 64.4105 26.6055L65.6586 25.4738C64.9011 24.1793 63.8885 22.1938 65.4584 20.0852C66.1021 19.2076 68.9162 16.6781 73.0962 18.3181C74.8077 18.9891 76.2355 20.2413 77.1349 21.8602C76.9622 21.8404 76.7856 21.8404 76.6089 21.8404C75.3349 21.8043 74.0686 22.0524 72.8999 22.5671C72.3511 22.4187 71.8594 22.1062 71.4889 21.6705C71.1185 21.2348 70.8866 20.6961 70.8237 20.1249L69.4343 20.252C69.2922 20.9633 69.341 21.7002 69.5757 22.3859C69.8104 23.0717 70.2223 23.6813 70.7687 24.1515C70.1395 24.8584 69.6706 25.696 69.3951 26.6055L70.8041 27.2885C71.7735 25.5215 74.1716 24.1674 76.5265 24.1674H76.5854C77.5234 24.1753 79.215 24.4136 80 25.9066C80.7026 27.2369 80.785 28.4798 80.2355 29.3137C79.741 30.0643 78.8069 30.4296 77.6294 30.3144L77.3586 32.1649C77.8858 32.4472 78.4733 32.5948 79.0698 32.5948Z" fill="#D8C290"/>
<path d="M65.7135 10.67L67.9703 4.79694C69.6384 5.01931 70.8943 2.50171 69.0379 1.42955C67.1814 0.357388 65.4898 2.7638 66.7889 4.16556C64.6263 6.81817 63.2997 6.29797 62.4206 3.49843C64.069 2.91867 63.8374 0 61.769 0C59.7006 0 59.367 2.77968 61.0312 3.45078C60.152 6.52034 58.2249 6.70301 56.8119 4.10996C57.9658 2.77968 56.3331 0.353417 54.5473 1.39778C52.7615 2.44215 53.8487 5.02725 55.6109 4.76517L58.1935 10.7216L65.7135 10.67Z" fill="#D8C290"/>
</g>
<defs>
<filter id="filter0_d_165_3" x="0" y="0" width="139" height="114" filterUnits="userSpaceOnUse" color-interpolation-filters="sRGB">
<feFlood flood-opacity="0" result="BackgroundImageFix"/>
<feColorMatrix in="SourceAlpha" type="matrix" values="0 0 0 0 0 0 0 0 0 0 0 0 0 0 0 0 0 0 127 0" result="hardAlpha"/>
<feOffset dx="10" dy="10"/>
<feGaussianBlur stdDeviation="2"/>
<feComposite in2="hardAlpha" operator="out"/>
<feColorMatrix type="matrix" values="0 0 0 0 0 0 0 0 0 0 0 0 0 0 0 0 0 0 0.25 0"/>
<feBlend mode="normal" in2="BackgroundImageFix" result="effect1_dropShadow_165_3"/>
<feBlend mode="normal" in="SourceGraphic" in2="effect1_dropShadow_165_3" result="shape"/>
</filter>
</defs>
</svg>
