<svg width="141" height="116" viewBox="0 0 141 116" fill="none" xmlns="http://www.w3.org/2000/svg">
<g filter="url(#filter0_d_165_4)">
<path d="M0 97.1995V88.8778H5.35045V90.335H1.79506V92.071H2.50151C3.29674 92.071 3.94914 92.1792 4.4587 92.3955C4.97213 92.6118 5.35045 92.9115 5.59365 93.2948C5.84071 93.6743 5.96424 94.1088 5.96424 94.5983C5.96424 95.4217 5.68436 96.0611 5.12461 96.5165C4.56872 96.9718 3.68277 97.1995 2.46676 97.1995H0ZM1.79506 95.7538H2.39728C2.94159 95.7538 3.37008 95.6684 3.68277 95.4976C3.99546 95.3231 4.15181 95.0233 4.15181 94.5983C4.15181 94.3023 4.0746 94.0765 3.92019 93.9209C3.76963 93.7653 3.55153 93.6591 3.26586 93.6022C2.98405 93.5452 2.64627 93.5168 2.25252 93.5168H1.79506V95.7538Z" fill="#C1C1C1"/>
<path d="M7.43503 97.1995V90.8359H9.20114V93.2948H10.0523C10.7125 93.2948 11.2568 93.3631 11.6853 93.4997C12.1176 93.6363 12.438 93.845 12.6465 94.1258C12.855 94.4029 12.9592 94.752 12.9592 95.1732C12.9592 95.583 12.8627 95.9397 12.6697 96.2433C12.4766 96.5469 12.1717 96.7821 11.7548 96.9491C11.3378 97.116 10.7916 97.1995 10.116 97.1995H7.43503ZM9.20114 95.9985H10.0176C10.3612 95.9985 10.643 95.9378 10.863 95.8164C11.0831 95.6912 11.1931 95.4843 11.1931 95.1959C11.1931 94.9493 11.0927 94.7709 10.892 94.6609C10.6912 94.5508 10.3921 94.4958 9.99444 94.4958H9.20114V95.9985ZM13.8973 97.1995V90.8359H15.6634V97.1995H13.8973Z" fill="#C1C1C1"/>
<path d="M20.151 97.3134C19.5102 97.3134 18.964 97.1995 18.5123 96.9718C18.0606 96.7404 17.7171 96.3837 17.4816 95.9017C17.2461 95.4198 17.1284 94.8032 17.1284 94.0518C17.1284 93.2739 17.2615 92.6402 17.5279 92.1507C17.7981 91.6574 18.1707 91.295 18.6455 91.0635C19.1242 90.8321 19.6781 90.7163 20.3074 90.7163C20.7552 90.7163 21.1412 90.76 21.4655 90.8472C21.7936 90.9307 22.0793 91.0313 22.3225 91.1489L21.8013 92.4922C21.5234 92.3822 21.2647 92.293 21.0254 92.2247C20.786 92.1526 20.5467 92.1166 20.3074 92.1166C19.9985 92.1166 19.7418 92.1887 19.5372 92.3329C19.3326 92.4733 19.1801 92.6858 19.0798 92.9704C18.9794 93.255 18.9292 93.6117 18.9292 94.0405C18.9292 94.4617 18.9833 94.8108 19.0913 95.0878C19.1994 95.3648 19.3558 95.5716 19.5604 95.7082C19.765 95.841 20.014 95.9074 20.3074 95.9074C20.6741 95.9074 21.0003 95.86 21.286 95.7651C21.5716 95.6665 21.8496 95.5299 22.1198 95.3553V96.8409C21.8496 97.0079 21.5658 97.1274 21.2686 97.1995C20.9752 97.2754 20.6027 97.3134 20.151 97.3134Z" fill="#C1C1C1"/>
<path d="M28.9816 92.1393H26.8622V97.1995H25.0961V92.1393H22.971V90.8359H28.9816V92.1393Z" fill="#C1C1C1"/>
<path d="M33.7935 90.7163C34.5231 90.7163 35.1118 90.9952 35.5596 91.5531C36.0113 92.1109 36.2371 92.9286 36.2371 94.0063C36.2371 94.7273 36.1309 95.3344 35.9186 95.8278C35.7063 96.3173 35.4129 96.6872 35.0385 96.9377C34.664 97.1881 34.2336 97.3134 33.7472 97.3134C33.4345 97.3134 33.1662 97.2754 32.9423 97.1995C32.7184 97.1198 32.5273 97.0193 32.369 96.8979C32.2107 96.7726 32.0737 96.6398 31.9579 96.4994H31.8652C31.8961 96.6512 31.9193 96.8068 31.9347 96.9662C31.9502 97.1255 31.9579 97.2811 31.9579 97.4329V100H30.1918V90.8359H31.6278L31.8768 91.6612H31.9579C32.0737 91.4904 32.2146 91.333 32.3806 91.1888C32.5466 91.0446 32.7454 90.9307 32.977 90.8472C33.2125 90.76 33.4847 90.7163 33.7935 90.7163ZM33.226 92.1052C32.9172 92.1052 32.6721 92.1678 32.4906 92.293C32.3092 92.4182 32.176 92.6061 32.0911 92.8565C32.01 93.107 31.9656 93.4238 31.9579 93.8071V93.9949C31.9579 94.4047 31.9965 94.752 32.0737 95.0366C32.1548 95.3212 32.288 95.5375 32.4733 95.6854C32.6624 95.8334 32.9211 95.9074 33.2492 95.9074C33.5194 95.9074 33.7414 95.8334 33.9151 95.6854C34.0888 95.5375 34.2181 95.3212 34.3031 95.0366C34.3918 94.7482 34.4362 94.3972 34.4362 93.9835C34.4362 93.3612 34.3378 92.8926 34.1409 92.5776C33.944 92.2627 33.6391 92.1052 33.226 92.1052Z" fill="#C1C1C1"/>
<path d="M40.3484 90.7049C41.2169 90.7049 41.8829 90.8909 42.3461 91.2627C42.8093 91.6346 43.041 92.2 43.041 92.959V97.1995H41.8076L41.4659 96.3343H41.4196C41.2343 96.562 41.0452 96.748 40.8521 96.8922C40.6591 97.0364 40.4371 97.1426 40.1862 97.2109C39.9353 97.2792 39.6303 97.3134 39.2713 97.3134C38.8892 97.3134 38.5456 97.2413 38.2406 97.0971C37.9395 96.9529 37.7021 96.7328 37.5284 96.4368C37.3547 96.137 37.2678 95.7576 37.2678 95.2984C37.2678 94.6229 37.5091 94.1258 37.9916 93.8071C38.4742 93.4845 39.198 93.3062 40.1631 93.272L41.2864 93.2379V92.959C41.2864 92.625 41.1976 92.3803 41.0201 92.2247C40.8425 92.0691 40.5954 91.9913 40.2789 91.9913C39.9662 91.9913 39.6593 92.035 39.3582 92.1223C39.0571 92.2095 38.756 92.3196 38.4549 92.4524L37.87 91.2798C38.2136 91.1015 38.5977 90.9611 39.0223 90.8586C39.4508 90.7562 39.8928 90.7049 40.3484 90.7049ZM41.2864 94.2511L40.6031 94.2738C40.0318 94.289 39.6342 94.3896 39.4103 94.5755C39.1903 94.7615 39.0802 95.0062 39.0802 95.3098C39.0802 95.5754 39.1594 95.7651 39.3177 95.879C39.4759 95.989 39.6825 96.044 39.9372 96.044C40.3156 96.044 40.634 95.934 40.8927 95.7139C41.1552 95.4938 41.2864 95.1808 41.2864 94.7747V94.2511Z" fill="#C1C1C1"/>
<path d="M45.8494 97.1995H43.9385L45.6814 94.6837C45.4614 94.5926 45.2549 94.4674 45.0619 94.308C44.8688 94.1448 44.7125 93.9399 44.5928 93.6932C44.4731 93.4466 44.4133 93.1506 44.4133 92.8053C44.4133 92.1716 44.6565 91.6859 45.1429 91.3481C45.6332 91.0066 46.2643 90.8359 47.0364 90.8359H50.0475V97.1995H48.2814V94.8317H47.3086L45.8494 97.1995ZM46.1447 92.8167C46.1447 93.0823 46.2508 93.291 46.4632 93.4428C46.6793 93.5908 46.9573 93.6648 47.297 93.6648H48.2814V92.0596H47.0712C46.7546 92.0596 46.5211 92.1355 46.3705 92.2873C46.22 92.4353 46.1447 92.6118 46.1447 92.8167Z" fill="#C1C1C1"/>
<path d="M60.8584 90.8359V97.1995H59.0865V92.1393H56.7413V97.1995H54.9752V90.8359H60.8584Z" fill="#C1C1C1"/>
<path d="M68.5945 94.0063C68.5945 94.5376 68.5212 95.0081 68.3745 95.4179C68.2317 95.8278 68.0213 96.175 67.7433 96.4596C67.4692 96.7404 67.1373 96.9529 66.7474 97.0971C66.3613 97.2413 65.9251 97.3134 65.4387 97.3134C64.9832 97.3134 64.5643 97.2413 64.1822 97.0971C63.8038 96.9529 63.4738 96.7404 63.192 96.4596C62.914 96.175 62.6978 95.8278 62.5434 95.4179C62.3929 95.0081 62.3176 94.5376 62.3176 94.0063C62.3176 93.3005 62.445 92.7028 62.6998 92.2133C62.9546 91.7238 63.3174 91.3519 63.7884 91.0977C64.2594 90.8434 64.821 90.7163 65.4734 90.7163C66.0795 90.7163 66.6161 90.8434 67.0832 91.0977C67.5542 91.3519 67.9228 91.7238 68.1892 92.2133C68.4594 92.7028 68.5945 93.3005 68.5945 94.0063ZM64.1185 94.0063C64.1185 94.4237 64.1648 94.7747 64.2574 95.0593C64.3501 95.3439 64.4948 95.5583 64.6917 95.7025C64.8886 95.8467 65.1453 95.9188 65.4619 95.9188C65.7746 95.9188 66.0274 95.8467 66.2204 95.7025C66.4173 95.5583 66.5601 95.3439 66.6489 95.0593C66.7416 94.7747 66.7879 94.4237 66.7879 94.0063C66.7879 93.5851 66.7416 93.236 66.6489 92.959C66.5601 92.6782 66.4173 92.4676 66.2204 92.3272C66.0235 92.1868 65.7668 92.1166 65.4503 92.1166C64.9832 92.1166 64.6435 92.274 64.4311 92.589C64.2227 92.904 64.1185 93.3764 64.1185 94.0063Z" fill="#C1C1C1"/>
<path d="M75.8732 90.8359V95.9302H76.8229V99.482H75.2363V97.1995H70.8818V99.482H69.2952V95.9302H69.8395C70.1252 95.5014 70.3645 95.0119 70.5575 94.4617C70.7544 93.9114 70.9127 93.329 71.0323 92.7142C71.1559 92.0957 71.2447 91.4696 71.2987 90.8359H75.8732ZM74.1071 92.1393H72.7811C72.7193 92.6099 72.6402 93.0652 72.5437 93.5054C72.451 93.9418 72.3352 94.363 72.1962 94.769C72.0573 95.1713 71.8874 95.5583 71.6867 95.9302H74.1071V92.1393Z" fill="#C1C1C1"/>
<path d="M82.3991 90.8359V92.1393H79.695V97.1995H77.9289V90.8359H82.3991Z" fill="#C1C1C1"/>
<path d="M89.4867 94.0063C89.4867 94.5376 89.4134 95.0081 89.2667 95.4179C89.1238 95.8278 88.9135 96.175 88.6355 96.4596C88.3614 96.7404 88.0294 96.9529 87.6395 97.0971C87.2535 97.2413 86.8173 97.3134 86.3309 97.3134C85.8754 97.3134 85.4565 97.2413 85.0744 97.0971C84.696 96.9529 84.366 96.7404 84.0842 96.4596C83.8062 96.175 83.5901 95.8278 83.4356 95.4179C83.2851 95.0081 83.2098 94.5376 83.2098 94.0063C83.2098 93.3005 83.3372 92.7028 83.592 92.2133C83.8468 91.7238 84.2096 91.3519 84.6806 91.0977C85.1516 90.8434 85.7132 90.7163 86.3656 90.7163C86.9717 90.7163 87.5083 90.8434 87.9754 91.0977C88.4464 91.3519 88.815 91.7238 89.0814 92.2133C89.3516 92.7028 89.4867 93.3005 89.4867 94.0063ZM85.0107 94.0063C85.0107 94.4237 85.057 94.7747 85.1496 95.0593C85.2423 95.3439 85.387 95.5583 85.5839 95.7025C85.7808 95.8467 86.0375 95.9188 86.3541 95.9188C86.6667 95.9188 86.9196 95.8467 87.1126 95.7025C87.3095 95.5583 87.4523 95.3439 87.5411 95.0593C87.6338 94.7747 87.6801 94.4237 87.6801 94.0063C87.6801 93.5851 87.6338 93.236 87.5411 92.959C87.4523 92.6782 87.3095 92.4676 87.1126 92.3272C86.9157 92.1868 86.659 92.1166 86.3425 92.1166C85.8754 92.1166 85.5357 92.274 85.3233 92.589C85.1149 92.904 85.0107 93.3764 85.0107 94.0063Z" fill="#C1C1C1"/>
<path d="M96.3022 92.1393H94.1828V97.1995H92.4167V92.1393H90.2916V90.8359H96.3022V92.1393Z" fill="#C1C1C1"/>
<path d="M103.396 94.0063C103.396 94.5376 103.322 95.0081 103.176 95.4179C103.033 95.8278 102.822 96.175 102.544 96.4596C102.27 96.7404 101.938 96.9529 101.548 97.0971C101.162 97.2413 100.726 97.3134 100.24 97.3134C99.7842 97.3134 99.3654 97.2413 98.9832 97.0971C98.6049 96.9529 98.2748 96.7404 97.993 96.4596C97.7151 96.175 97.4989 95.8278 97.3445 95.4179C97.1939 95.0081 97.1186 94.5376 97.1186 94.0063C97.1186 93.3005 97.246 92.7028 97.5008 92.2133C97.7556 91.7238 98.1185 91.3519 98.5894 91.0977C99.0604 90.8434 99.6221 90.7163 100.274 90.7163C100.881 90.7163 101.417 90.8434 101.884 91.0977C102.355 91.3519 102.724 91.7238 102.99 92.2133C103.26 92.7028 103.396 93.3005 103.396 94.0063ZM98.9195 94.0063C98.9195 94.4237 98.9658 94.7747 99.0585 95.0593C99.1511 95.3439 99.2959 95.5583 99.4928 95.7025C99.6896 95.8467 99.9464 95.9188 100.263 95.9188C100.576 95.9188 100.828 95.8467 101.021 95.7025C101.218 95.5583 101.361 95.3439 101.45 95.0593C101.543 94.7747 101.589 94.4237 101.589 94.0063C101.589 93.5851 101.543 93.236 101.45 92.959C101.361 92.6782 101.218 92.4676 101.021 92.3272C100.825 92.1868 100.568 92.1166 100.251 92.1166C99.7842 92.1166 99.4445 92.274 99.2322 92.589C99.0237 92.904 98.9195 93.3764 98.9195 94.0063Z" fill="#C1C1C1"/>
<path d="M110.593 92.5036C110.593 92.8451 110.483 93.1373 110.263 93.3802C110.047 93.6192 109.727 93.7729 109.302 93.8412V93.8868C109.75 93.9399 110.111 94.0936 110.385 94.3478C110.659 94.5983 110.796 94.9151 110.796 95.2984C110.796 95.6627 110.699 95.989 110.506 96.2774C110.313 96.562 110.006 96.7878 109.586 96.9548C109.165 97.1179 108.615 97.1995 107.935 97.1995H104.855V90.8359H107.935C108.441 90.8359 108.895 90.889 109.296 90.9952C109.698 91.0977 110.014 91.2703 110.246 91.5132C110.477 91.7561 110.593 92.0862 110.593 92.5036ZM108.966 95.2073C108.966 94.9569 108.866 94.7766 108.665 94.6666C108.468 94.5527 108.175 94.4958 107.785 94.4958H106.621V95.9985H107.82C108.152 95.9985 108.426 95.9378 108.642 95.8164C108.858 95.6949 108.966 95.4919 108.966 95.2073ZM108.804 92.6402C108.804 92.4429 108.725 92.2968 108.566 92.2019C108.408 92.1071 108.175 92.0596 107.866 92.0596H106.621V93.3176H107.663C108.038 93.3176 108.321 93.2645 108.514 93.1582C108.707 93.0519 108.804 92.8793 108.804 92.6402Z" fill="#C1C1C1"/>
<path d="M116.557 90.8359H118.503L115.938 93.8868L118.729 97.1995H116.725L114.079 93.9722V97.1995H112.313V90.8359H114.079V93.9266L116.557 90.8359Z" fill="#C1C1C1"/>
<path d="M122.307 90.7049C123.176 90.7049 123.842 90.8909 124.305 91.2627C124.768 91.6346 125 92.2 125 92.959V97.1995H123.767L123.425 96.3343H123.379C123.193 96.562 123.004 96.748 122.811 96.8922C122.618 97.0364 122.396 97.1426 122.145 97.2109C121.894 97.2792 121.589 97.3134 121.23 97.3134C120.848 97.3134 120.505 97.2413 120.2 97.0971C119.899 96.9529 119.661 96.7328 119.487 96.4368C119.314 96.137 119.227 95.7576 119.227 95.2984C119.227 94.6229 119.468 94.1258 119.951 93.8071C120.433 93.4845 121.157 93.3062 122.122 93.272L123.245 93.2379V92.959C123.245 92.625 123.157 92.3803 122.979 92.2247C122.802 92.0691 122.554 91.9913 122.238 91.9913C121.925 91.9913 121.618 92.035 121.317 92.1223C121.016 92.2095 120.715 92.3196 120.414 92.4524L119.829 91.2798C120.173 91.1015 120.557 90.9611 120.981 90.8586C121.41 90.7562 121.852 90.7049 122.307 90.7049ZM123.245 94.2511L122.562 94.2738C121.991 94.289 121.593 94.3896 121.369 94.5755C121.149 94.7615 121.039 95.0062 121.039 95.3098C121.039 95.5754 121.118 95.7651 121.277 95.879C121.435 95.989 121.642 96.044 121.896 96.044C122.275 96.044 122.593 95.934 122.852 95.7139C123.114 95.4938 123.245 95.1808 123.245 94.7747V94.2511Z" fill="#C1C1C1"/>
<path d="M52.7859 6.48557V0H72.573V6.55108H65.9773V6.94414C67.6262 7.20618 69.2092 7.46823 70.7262 7.99232L68.4836 14.1503C66.5709 13.4297 64.6581 13.1022 62.6794 13.1022C53.5115 13.1022 46.1903 20.3739 46.1903 29.4799C46.1903 38.5859 53.5115 45.8576 62.6794 45.8576C71.8474 45.8576 79.1686 38.5859 79.1686 29.4799C79.1686 27.449 78.8388 25.6147 78.1133 23.7149L84.1154 21.2255C85.1047 23.7149 85.7643 26.4664 85.7643 29.4144C85.7643 42.058 75.4091 52.3432 62.6794 52.3432C49.9498 52.3432 39.5946 42.058 39.5946 29.4144C39.5946 17.8845 48.169 8.25436 59.3816 6.6821V6.48557H52.7859Z" fill="#D8C290"/>
<path d="M60.4369 27.187C61.6901 25.9423 85.7643 7.53374 85.7643 7.53374H85.8303C85.8303 7.53374 66.3071 30.397 64.9879 31.7072C63.6688 33.0175 61.6901 33.0175 60.4369 31.7072C59.1837 30.397 59.1837 28.4972 60.4369 27.187Z" fill="#D8C290"/>
</g>
<defs>
<filter id="filter0_d_165_4" x="0" y="0" width="141" height="116" filterUnits="userSpaceOnUse" color-interpolation-filters="sRGB">
<feFlood flood-opacity="0" result="BackgroundImageFix"/>
<feColorMatrix in="SourceAlpha" type="matrix" values="0 0 0 0 0 0 0 0 0 0 0 0 0 0 0 0 0 0 127 0" result="hardAlpha"/>
<feMorphology radius="2" operator="dilate" in="SourceAlpha" result="effect1_dropShadow_165_4"/>
<feOffset dx="10" dy="10"/>
<feGaussianBlur stdDeviation="2"/>
<feComposite in2="hardAlpha" operator="out"/>
<feColorMatrix type="matrix" values="0 0 0 0 0 0 0 0 0 0 0 0 0 0 0 0 0 0 0.25 0"/>
<feBlend mode="normal" in2="BackgroundImageFix" result="effect1_dropShadow_165_4"/>
<feBlend mode="normal" in="SourceGraphic" in2="effect1_dropShadow_165_4" result="shape"/>
</filter>
</defs>
</svg>
