<svg width="121" height="116" viewBox="0 0 121 116" fill="none" xmlns="http://www.w3.org/2000/svg">
<g filter="url(#filter0_d_165_2)">
<path d="M6.43296 84.9842H4.77371V81.5819H1.66462V84.9842H0V77.1011H1.66462V80.1907H4.77371V77.1011H6.43296V84.9842Z" fill="#C1C1C1"/>
<path d="M9.87496 78.9559V81.3392C9.87496 81.4614 9.86959 81.616 9.85885 81.8029C9.85169 81.9863 9.84095 82.1732 9.82663 82.3637C9.81231 82.5542 9.798 82.725 9.78368 82.876C9.76936 83.0269 9.75861 83.1294 9.75145 83.1833L12.5222 78.9559H14.4929V84.9842H12.9089V82.5794C12.9089 82.3817 12.916 82.1642 12.9303 81.927C12.9447 81.6861 12.9608 81.4596 12.9787 81.2476C12.9966 81.0355 13.0091 80.8755 13.0163 80.7677L10.2562 84.9842H8.29089V78.9559H9.87496Z" fill="#C1C1C1"/>
<path d="M18.4021 78.8427C18.8353 78.8427 19.2398 78.9002 19.6157 79.0153C19.9916 79.1267 20.2958 79.301 20.5285 79.5383C20.7612 79.7719 20.8776 80.0739 20.8776 80.4442C20.8776 80.8072 20.7684 81.0966 20.55 81.3123C20.3316 81.5244 20.0417 81.6771 19.6801 81.7706V81.8245C19.9343 81.8856 20.1634 81.9683 20.3674 82.0726C20.5751 82.1768 20.7397 82.3206 20.8615 82.5039C20.9832 82.6872 21.044 82.9281 21.044 83.2264C21.044 83.5608 20.9384 83.8699 20.7272 84.1539C20.516 84.4343 20.192 84.6607 19.7553 84.8333C19.3221 85.0058 18.7655 85.0921 18.0853 85.0921C17.7631 85.0921 17.4588 85.0777 17.1724 85.049C16.8896 85.0202 16.6301 84.9789 16.3938 84.9249C16.1576 84.8674 15.9517 84.7991 15.7763 84.72V83.3612C16.0233 83.4763 16.3276 83.5823 16.6892 83.6794C17.0543 83.7764 17.4427 83.825 17.8544 83.825C18.1515 83.825 18.42 83.8034 18.6599 83.7603C18.9033 83.7171 19.0948 83.6452 19.2344 83.5446C19.3776 83.4403 19.4492 83.3019 19.4492 83.1294C19.4492 82.9676 19.3866 82.8346 19.2613 82.7304C19.1396 82.6225 18.9516 82.5435 18.6975 82.4931C18.4469 82.4392 18.1283 82.4122 17.7416 82.4122H17.108V81.2745H17.7094C18.2536 81.2745 18.6742 81.2296 18.9713 81.1397C19.2684 81.0499 19.417 80.8845 19.417 80.6437C19.417 80.4495 19.3221 80.304 19.1324 80.2069C18.9427 80.1099 18.6294 80.0613 18.1927 80.0613C17.9099 80.0613 17.5984 80.0955 17.2584 80.1638C16.9183 80.2285 16.5997 80.3219 16.3025 80.4442L15.8193 79.2957C16.1665 79.1627 16.5424 79.0548 16.9469 78.9721C17.355 78.8858 17.8401 78.8427 18.4021 78.8427Z" fill="#C1C1C1"/>
<path d="M26.2634 78.9559H28.0677L25.6889 81.8461L28.2771 84.9842H26.4191L23.9652 81.927V84.9842H22.3274V78.9559H23.9652V81.8838L26.2634 78.9559Z" fill="#C1C1C1"/>
<path d="M31.5956 78.8319C32.401 78.8319 33.0186 79.0081 33.4481 79.3603C33.8777 79.7126 34.0925 80.2482 34.0925 80.9672V84.9842H32.9487L32.6319 84.1647H32.589C32.4171 84.3803 32.2417 84.5565 32.0628 84.6931C31.8838 84.8297 31.6779 84.9303 31.4452 84.995C31.2125 85.0597 30.9297 85.0921 30.5968 85.0921C30.2424 85.0921 29.9238 85.0238 29.641 84.8872C29.3618 84.7506 29.1416 84.5421 28.9805 84.2617C28.8194 83.9777 28.7389 83.6183 28.7389 83.1833C28.7389 82.5434 28.9626 82.0725 29.4101 81.7706C29.8576 81.465 30.5288 81.2961 31.4238 81.2637L32.4655 81.2314V80.9672C32.4655 80.6508 32.3831 80.419 32.2185 80.2716C32.0538 80.1242 31.8247 80.0505 31.5311 80.0505C31.2412 80.0505 30.9566 80.0919 30.6774 80.1745C30.3981 80.2572 30.1189 80.3615 29.8397 80.4873L29.2973 79.3765C29.6159 79.2076 29.9721 79.0746 30.3659 78.9775C30.7633 78.8805 31.1732 78.8319 31.5956 78.8319ZM32.4655 82.1912L31.8318 82.2127C31.302 82.2271 30.9333 82.3224 30.7257 82.4985C30.5216 82.6747 30.4196 82.9065 30.4196 83.1941C30.4196 83.4457 30.493 83.6255 30.6398 83.7333C30.7865 83.8375 30.9781 83.8897 31.2143 83.8897C31.5651 83.8897 31.8605 83.7854 32.1003 83.5769C32.3438 83.3684 32.4655 83.0719 32.4655 82.6872V82.1912Z" fill="#C1C1C1"/>
<path d="M36.6968 84.9842H34.9248L36.5411 82.601C36.3371 82.5147 36.1455 82.3961 35.9665 82.2451C35.7876 82.0905 35.6426 81.8964 35.5316 81.6628C35.4206 81.4291 35.3651 81.1487 35.3651 80.8216C35.3651 80.2213 35.5907 79.7611 36.0417 79.4412C36.4964 79.1177 37.0817 78.9559 37.7976 78.9559H40.5899V84.9842H38.9521V82.7412H38.05L36.6968 84.9842ZM36.9707 80.8324C36.9707 81.084 37.0691 81.2817 37.266 81.4255C37.4665 81.5657 37.7242 81.6358 38.0393 81.6358H38.9521V80.1152H37.8298C37.5363 80.1152 37.3197 80.1871 37.1801 80.3309C37.0405 80.4711 36.9707 80.6383 36.9707 80.8324Z" fill="#C1C1C1"/>
<path d="M47.5974 85.0921C47.0032 85.0921 46.4966 84.9843 46.0778 84.7686C45.6589 84.5493 45.3403 84.2114 45.122 83.7549C44.9036 83.2983 44.7944 82.7142 44.7944 82.0024C44.7944 81.2655 44.9179 80.6652 45.1649 80.2015C45.4155 79.7342 45.761 79.3909 46.2013 79.1716C46.6452 78.9524 47.1589 78.8427 47.7424 78.8427C48.1577 78.8427 48.5156 78.8841 48.8163 78.9667C49.1206 79.0458 49.3855 79.1411 49.6111 79.2525L49.1278 80.525C48.87 80.4208 48.6302 80.3363 48.4083 80.2716C48.1863 80.2033 47.9643 80.1692 47.7424 80.1692C47.456 80.1692 47.218 80.2375 47.0282 80.3741C46.8385 80.5071 46.6971 80.7084 46.604 80.978C46.5109 81.2476 46.4644 81.5855 46.4644 81.9917C46.4644 82.3907 46.5145 82.7214 46.6147 82.9838C46.715 83.2462 46.86 83.4421 47.0497 83.5715C47.2394 83.6973 47.4703 83.7603 47.7424 83.7603C48.0825 83.7603 48.385 83.7153 48.6499 83.6254C48.9148 83.532 49.1725 83.4026 49.4231 83.2372V84.6446C49.1725 84.8027 48.9094 84.9159 48.6338 84.9842C48.3617 85.0561 48.0163 85.0921 47.5974 85.0921Z" fill="#C1C1C1"/>
<path d="M55.7863 80.1907H53.821V84.9842H52.1832V80.1907H50.2125V78.9559H55.7863V80.1907Z" fill="#C1C1C1"/>
<path d="M62.3642 81.9593C62.3642 82.4626 62.2962 82.9083 62.1602 83.2966C62.0277 83.6848 61.8326 84.0137 61.5749 84.2833C61.3207 84.5493 61.0128 84.7506 60.6513 84.8872C60.2933 85.0238 59.8888 85.0921 59.4377 85.0921C59.0153 85.0921 58.6269 85.0238 58.2725 84.8872C57.9216 84.7506 57.6156 84.5493 57.3542 84.2833C57.0965 84.0137 56.896 83.6848 56.7528 83.2966C56.6132 82.9083 56.5434 82.4626 56.5434 81.9593C56.5434 81.2907 56.6615 80.7245 56.8978 80.2608C57.1341 79.7971 57.4706 79.4448 57.9073 79.204C58.3441 78.9631 58.8649 78.8427 59.4699 78.8427C60.032 78.8427 60.5295 78.9631 60.9627 79.204C61.3994 79.4448 61.7413 79.7971 61.9883 80.2608C62.2389 80.7245 62.3642 81.2907 62.3642 81.9593ZM58.2134 81.9593C58.2134 82.3547 58.2564 82.6872 58.3423 82.9568C58.4282 83.2264 58.5624 83.4296 58.745 83.5661C58.9276 83.7027 59.1656 83.771 59.4592 83.771C59.7491 83.771 59.9836 83.7027 60.1626 83.5661C60.3452 83.4296 60.4776 83.2264 60.56 82.9568C60.6459 82.6872 60.6888 82.3547 60.6888 81.9593C60.6888 81.5603 60.6459 81.2296 60.56 80.9672C60.4776 80.7012 60.3452 80.5017 60.1626 80.3687C59.98 80.2357 59.742 80.1692 59.4484 80.1692C59.0153 80.1692 58.7003 80.3183 58.5034 80.6167C58.3101 80.9151 58.2134 81.3626 58.2134 81.9593Z" fill="#C1C1C1"/>
<path d="M65.3015 78.9559V81.3392C65.3015 81.4614 65.2961 81.616 65.2853 81.8029C65.2782 81.9863 65.2674 82.1732 65.2531 82.3637C65.2388 82.5542 65.2245 82.725 65.2102 82.876C65.1959 83.0269 65.1851 83.1294 65.178 83.1833L67.9487 78.9559H69.9194V84.9842H68.3354V82.5794C68.3354 82.3817 68.3425 82.1642 68.3568 81.927C68.3712 81.6861 68.3873 81.4596 68.4052 81.2476C68.4231 81.0355 68.4356 80.8755 68.4428 80.7677L65.6827 84.9842H63.7174V78.9559H65.3015Z" fill="#C1C1C1"/>
<path d="M79.2091 78.9559V84.9842H77.6787V82.024C77.6787 81.7328 77.6841 81.4471 77.6948 81.1667C77.7056 80.8863 77.7217 80.6275 77.7432 80.3902H77.711L76.0517 84.9842H74.822L73.1359 80.3794H73.093C73.1216 80.6203 73.1413 80.8791 73.152 81.1559C73.1628 81.4327 73.1682 81.7364 73.1682 82.0672V84.9842H71.6431V78.9559H73.9629L75.4557 83.0431L76.9753 78.9559H79.2091Z" fill="#C1C1C1"/>
<path d="M86.3885 81.9593C86.3885 82.4626 86.3204 82.9083 86.1844 83.2966C86.052 83.6848 85.8568 84.0137 85.5991 84.2833C85.3449 84.5493 85.0371 84.7506 84.6755 84.8872C84.3175 85.0238 83.913 85.0921 83.462 85.0921C83.0395 85.0921 82.6511 85.0238 82.2967 84.8872C81.9459 84.7506 81.6398 84.5493 81.3785 84.2833C81.1207 84.0137 80.9203 83.6848 80.7771 83.2966C80.6375 82.9083 80.5677 82.4626 80.5677 81.9593C80.5677 81.2907 80.6858 80.7245 80.9221 80.2608C81.1583 79.7971 81.4948 79.4448 81.9316 79.204C82.3683 78.9631 82.8892 78.8427 83.4942 78.8427C84.0562 78.8427 84.5538 78.9631 84.9869 79.204C85.4237 79.4448 85.7656 79.7971 86.0126 80.2608C86.2632 80.7245 86.3885 81.2907 86.3885 81.9593ZM82.2376 81.9593C82.2376 82.3547 82.2806 82.6872 82.3665 82.9568C82.4524 83.2264 82.5867 83.4296 82.7693 83.5661C82.9518 83.7027 83.1899 83.771 83.4834 83.771C83.7734 83.771 84.0079 83.7027 84.1869 83.5661C84.3694 83.4296 84.5019 83.2264 84.5842 82.9568C84.6701 82.6872 84.7131 82.3547 84.7131 81.9593C84.7131 81.5603 84.6701 81.2296 84.5842 80.9672C84.5019 80.7012 84.3694 80.5017 84.1869 80.3687C84.0043 80.2357 83.7662 80.1692 83.4727 80.1692C83.0395 80.1692 82.7245 80.3183 82.5276 80.6167C82.3343 80.9151 82.2376 81.3626 82.2376 81.9593Z" fill="#C1C1C1"/>
<path d="M90.1795 85.0921C89.5852 85.0921 89.0787 84.9843 88.6599 84.7686C88.241 84.5493 87.9224 84.2114 87.704 83.7549C87.4857 83.2983 87.3765 82.7142 87.3765 82.0024C87.3765 81.2655 87.5 80.6652 87.747 80.2015C87.9976 79.7342 88.343 79.3909 88.7834 79.1716C89.2273 78.9524 89.741 78.8427 90.3245 78.8427C90.7397 78.8427 91.0977 78.8841 91.3984 78.9667C91.7027 79.0458 91.9676 79.1411 92.1932 79.2525L91.7099 80.525C91.4521 80.4208 91.2123 80.3363 90.9903 80.2716C90.7684 80.2033 90.5464 80.1692 90.3245 80.1692C90.0381 80.1692 89.8 80.2375 89.6103 80.3741C89.4206 80.5071 89.2792 80.7084 89.1861 80.978C89.093 81.2476 89.0465 81.5855 89.0465 81.9917C89.0465 82.3907 89.0966 82.7214 89.1968 82.9838C89.2971 83.2462 89.4421 83.4421 89.6318 83.5715C89.8215 83.6973 90.0524 83.7603 90.3245 83.7603C90.6646 83.7603 90.9671 83.7153 91.232 83.6254C91.4969 83.532 91.7546 83.4026 92.0052 83.2372V84.6446C91.7546 84.8027 91.4915 84.9159 91.2159 84.9842C90.9438 85.0561 90.5983 85.0921 90.1795 85.0921Z" fill="#C1C1C1"/>
<path d="M98.3684 80.1907H96.403V84.9842H94.7653V80.1907H92.7945V78.9559H98.3684V80.1907Z" fill="#C1C1C1"/>
<path d="M101.128 81.2853H102.283C102.899 81.2853 103.407 81.35 103.808 81.4794C104.209 81.6088 104.508 81.8065 104.705 82.0726C104.902 82.335 105 82.6657 105 83.0647C105 83.4529 104.911 83.7908 104.732 84.0784C104.553 84.366 104.268 84.5888 103.878 84.747C103.488 84.9052 102.977 84.9842 102.347 84.9842H99.4906V78.9559H101.128V81.2853ZM103.362 83.0863C103.362 82.8526 103.269 82.6836 103.083 82.5794C102.897 82.4751 102.619 82.423 102.251 82.423H101.128V83.8465H102.272C102.591 83.8465 102.852 83.789 103.056 83.674C103.26 83.5554 103.362 83.3595 103.362 83.0863Z" fill="#C1C1C1"/>
<path d="M30.9942 93.7506C31.4273 93.7506 31.8318 93.8081 32.2077 93.9232C32.5836 94.0346 32.8879 94.209 33.1206 94.4462C33.3533 94.6799 33.4696 94.9818 33.4696 95.3521C33.4696 95.7151 33.3604 96.0045 33.1421 96.2202C32.9237 96.4323 32.6337 96.585 32.2722 96.6785V96.7324C32.5263 96.7935 32.7554 96.8762 32.9595 96.9805C33.1671 97.0847 33.3318 97.2285 33.4535 97.4118C33.5752 97.5952 33.6361 97.836 33.6361 98.1344C33.6361 98.4687 33.5305 98.7778 33.3193 99.0618C33.1081 99.3422 32.7841 99.5686 32.3473 99.7412C31.9142 99.9137 31.3575 100 30.6774 100C30.3552 100 30.0509 99.9856 29.7645 99.9569C29.4817 99.9281 29.2222 99.8868 28.9859 99.8328C28.7496 99.7753 28.5438 99.707 28.3684 99.628V98.2691C28.6154 98.3842 28.9197 98.4902 29.2812 98.5873C29.6464 98.6844 30.0348 98.7329 30.4465 98.7329C30.7436 98.7329 31.0121 98.7113 31.2519 98.6682C31.4953 98.625 31.6869 98.5531 31.8265 98.4525C31.9697 98.3482 32.0413 98.2098 32.0413 98.0373C32.0413 97.8755 31.9786 97.7425 31.8533 97.6383C31.7316 97.5304 31.5437 97.4514 31.2895 97.401C31.0389 97.3471 30.7203 97.3202 30.3337 97.3202H29.7001V96.1824H30.3015C30.8456 96.1824 31.2662 96.1375 31.5634 96.0476C31.8605 95.9578 32.0091 95.7924 32.0091 95.5516C32.0091 95.3574 31.9142 95.2119 31.7244 95.1148C31.5347 95.0178 31.2215 94.9692 30.7847 94.9692C30.5019 94.9692 30.1905 95.0034 29.8504 95.0717C29.5103 95.1364 29.1917 95.2299 28.8946 95.3521L28.4113 94.2036C28.7586 94.0706 29.1344 93.9627 29.539 93.88C29.9471 93.7938 30.4321 93.7506 30.9942 93.7506Z" fill="#C1C1C1"/>
<path d="M37.3788 93.7398C38.1843 93.7398 38.8018 93.916 39.2314 94.2683C39.6609 94.6205 39.8757 95.1562 39.8757 95.8751V99.8922H38.732L38.4151 99.0726H38.3722C38.2004 99.2883 38.0249 99.4644 37.846 99.601C37.667 99.7376 37.4611 99.8382 37.2284 99.9029C36.9958 99.9676 36.7129 100 36.38 100C36.0256 100 35.707 99.9317 35.4242 99.7951C35.145 99.6585 34.9248 99.45 34.7637 99.1696C34.6026 98.8857 34.5221 98.5262 34.5221 98.0912C34.5221 97.4514 34.7458 96.9805 35.1933 96.6785C35.6408 96.3729 36.312 96.204 37.207 96.1717L38.2487 96.1393V95.8751C38.2487 95.5588 38.1664 95.3269 38.0017 95.1795C37.837 95.0321 37.6079 94.9585 37.3144 94.9585C37.0244 94.9585 36.7398 94.9998 36.4606 95.0825C36.1813 95.1652 35.9021 95.2694 35.6229 95.3952L35.0805 94.2845C35.3991 94.1155 35.7553 93.9825 36.1491 93.8854C36.5465 93.7884 36.9564 93.7398 37.3788 93.7398ZM38.2487 97.0991L37.6151 97.1207C37.0852 97.135 36.7165 97.2303 36.5089 97.4064C36.3048 97.5826 36.2028 97.8144 36.2028 98.102C36.2028 98.3536 36.2762 98.5334 36.423 98.6412C36.5698 98.7455 36.7613 98.7976 36.9975 98.7976C37.3484 98.7976 37.6437 98.6933 37.8835 98.4848C38.127 98.2763 38.2487 97.9798 38.2487 97.5952V97.0991Z" fill="#C1C1C1"/>
<path d="M43.205 93.8639V96.1824H45.4925V93.8639H47.1303V99.8922H45.4925V97.4064H43.205V99.8922H41.5672V93.8639H43.205Z" fill="#C1C1C1"/>
<path d="M49.7614 99.8922H47.9894L49.6057 97.5089C49.4017 97.4226 49.2101 97.304 49.0311 97.153C48.8521 96.9984 48.7072 96.8043 48.5962 96.5707C48.4852 96.337 48.4297 96.0566 48.4297 95.7295C48.4297 95.1292 48.6553 94.6691 49.1063 94.3492C49.561 94.0256 50.1463 93.8639 50.8622 93.8639H53.6545V99.8922H52.0167V97.6491H51.1146L49.7614 99.8922ZM50.0353 95.7403C50.0353 95.9919 50.1337 96.1896 50.3306 96.3334C50.5311 96.4736 50.7888 96.5437 51.1039 96.5437H52.0167V95.0232H50.8944C50.6009 95.0232 50.3843 95.0951 50.2447 95.2388C50.1051 95.379 50.0353 95.5462 50.0353 95.7403Z" fill="#C1C1C1"/>
<path d="M60.3344 95.0986H58.3691V99.8922H56.7313V95.0986H54.7607V93.8639H60.3344V95.0986Z" fill="#C1C1C1"/>
<path d="M63.0408 93.8639V96.2472C63.0408 96.3694 63.0354 96.5239 63.0247 96.7109C63.0175 96.8942 63.0068 97.0811 62.9925 97.2716C62.9782 97.4622 62.9638 97.6329 62.9495 97.7839C62.9352 97.9349 62.9245 98.0373 62.9173 98.0912L65.6881 93.8639H67.6588V99.8922H66.0747V97.4873C66.0747 97.2896 66.0819 97.0721 66.0962 96.8349C66.1105 96.594 66.1266 96.3676 66.1445 96.1555C66.1624 95.9434 66.1749 95.7834 66.1821 95.6756L63.4221 99.8922H61.4567V93.8639H63.0408Z" fill="#C1C1C1"/>
<path d="M70.9665 93.8639V96.2472C70.9665 96.3694 70.9612 96.5239 70.9504 96.7109C70.9433 96.8942 70.9325 97.0811 70.9182 97.2716C70.9039 97.4622 70.8896 97.6329 70.8753 97.7839C70.8609 97.9349 70.8502 98.0373 70.843 98.0912L73.6138 93.8639H75.5845V99.8922H74.0005V97.4873C74.0005 97.2896 74.0076 97.0721 74.0219 96.8349C74.0363 96.594 74.0524 96.3676 74.0703 96.1555C74.0882 95.9434 74.1007 95.7834 74.1079 95.6756L71.3478 99.8922H69.3825V93.8639H70.9665ZM75.1335 91.2703C75.0941 91.6513 74.9867 91.9874 74.8113 92.2786C74.6359 92.5698 74.362 92.7962 73.9897 92.958C73.6174 93.1198 73.1162 93.2006 72.4862 93.2006C71.8382 93.2006 71.3335 93.1234 70.9719 92.9688C70.6104 92.8106 70.3526 92.5878 70.1987 92.3002C70.0447 92.009 69.9517 91.6657 69.9194 91.2703H71.3854C71.4176 91.6765 71.5196 91.9461 71.6915 92.0791C71.8633 92.2085 72.1389 92.2732 72.5184 92.2732C72.8334 92.2732 73.0912 92.2013 73.2916 92.0575C73.4921 91.9137 73.612 91.6513 73.6514 91.2703H75.1335Z" fill="#C1C1C1"/>
<path d="M69.907 11.324C68.9492 13.2713 67.8706 15.1575 66.6773 16.9718L69.6422 19.3007C71.7607 16.514 73.8102 12.6344 74.2995 9.69325C69.6249 7.10114 56.3839 0 56.3839 0C54.027 8.31736 50.4164 12.4119 47.1248 16.1446C46.911 16.3872 46.6984 16.6282 46.4877 16.8688L51.3638 16.7314C53.9717 13.7903 56.5854 10.6088 58.0016 5.68205C61.5363 7.56462 69.907 11.324 69.907 11.324Z" fill="#D8C290"/>
<path d="M43.7531 16.9374C45.1463 13.5557 46.3207 9.92785 46.1825 5.45889C46.6143 5.53328 50.8802 5.75072 50.8802 5.75072L52.3425 2.31745L43.068 1.17303C43.335 6.65232 42.2125 12.1105 39.8038 17.0462L43.7531 16.9374Z" fill="#D8C290"/>
<path d="M35.6646 17.1434C35.8396 14.8558 35.6452 12.555 35.0889 10.3284C35.5494 10.3284 39.5217 9.64747 39.5217 9.64747L39.9593 5.83082L31.036 6.56325C31.9699 10.0475 32.3277 13.6595 32.0953 17.2579L35.6646 17.1434Z" fill="#D8C290"/>
<path d="M68.0072 26.2359V24.9541C68.0072 21.7154 66.6888 19.8042 63.4246 19.787C57.6734 19.787 30.2185 20.2734 30.2185 20.2734L30.6157 49.6621C30.6157 49.6621 56.9999 49.376 63.96 49.2845C66.2398 49.2559 67.679 47.5965 67.679 45.3706C67.679 45.1919 67.6845 44.9313 67.6913 44.6016C67.7032 44.034 67.7193 43.2615 67.7193 42.3493C64.6681 42.3092 60.7304 42.2749 57.2762 42.2749C53.3557 42.2749 50.9896 39.5283 50.9896 35.643V31.7806C50.9896 29.1083 53.2751 26.562 56.0154 26.5219C60.4425 26.4647 64.8409 26.3388 68.0072 26.2359Z" fill="#D8C290"/>
<path d="M54.1905 32.862V35.0193C54.1905 37.7945 55.3073 39.4024 58.0995 39.3852C62.9871 39.3852 70.0797 38.9618 70.0797 38.9618L69.8955 29.5661C69.8955 29.5661 63.275 29.4517 57.3568 29.5318C55.4109 29.5547 54.1905 30.968 54.1905 32.862Z" fill="#D8C290"/>
</g>
<defs>
<filter id="filter0_d_165_2" x="0" y="0" width="121" height="116" filterUnits="userSpaceOnUse" color-interpolation-filters="sRGB">
<feFlood flood-opacity="0" result="BackgroundImageFix"/>
<feColorMatrix in="SourceAlpha" type="matrix" values="0 0 0 0 0 0 0 0 0 0 0 0 0 0 0 0 0 0 127 0" result="hardAlpha"/>
<feMorphology radius="2" operator="dilate" in="SourceAlpha" result="effect1_dropShadow_165_2"/>
<feOffset dx="10" dy="10"/>
<feGaussianBlur stdDeviation="2"/>
<feComposite in2="hardAlpha" operator="out"/>
<feColorMatrix type="matrix" values="0 0 0 0 0 0 0 0 0 0 0 0 0 0 0 0 0 0 0.25 0"/>
<feBlend mode="normal" in2="BackgroundImageFix" result="effect1_dropShadow_165_2"/>
<feBlend mode="normal" in="SourceGraphic" in2="effect1_dropShadow_165_2" result="shape"/>
</filter>
</defs>
</svg>
