<svg width="1628" height="1240" viewBox="0 0 1628 1240" fill="none" xmlns="http://www.w3.org/2000/svg">
<path d="M0 0H1628V1240H0V0Z" fill="#004731"/>
<path d="M569.898 308L548.805 253.625H480.133L459.156 308H439L506.031 135.969H523.961L590.523 308H569.898ZM542.828 235.93L522.789 181.906C522.32 180.5 521.539 178.195 520.445 174.992C519.43 171.789 518.375 168.469 517.281 165.031C516.188 161.594 515.289 158.82 514.586 156.711C513.805 159.914 512.945 163.117 512.008 166.32C511.148 169.445 510.289 172.375 509.43 175.109C508.57 177.766 507.828 180.031 507.203 181.906L486.812 235.93H542.828Z" fill="#005138"/>
<path d="M569.898 928L548.805 873.625H480.133L459.156 928H439L506.031 755.969H523.961L590.523 928H569.898ZM542.828 855.93L522.789 801.906C522.32 800.5 521.539 798.195 520.445 794.992C519.43 791.789 518.375 788.469 517.281 785.031C516.188 781.594 515.289 778.82 514.586 776.711C513.805 779.914 512.945 783.117 512.008 786.32C511.148 789.445 510.289 792.375 509.43 795.109C508.57 797.766 507.828 800.031 507.203 801.906L486.812 855.93H542.828Z" fill="#005138"/>
<path d="M162.898 618L141.805 563.625H73.1328L52.1562 618H32L99.0312 445.969H116.961L183.523 618H162.898ZM135.828 545.93L115.789 491.906C115.32 490.5 114.539 488.195 113.445 484.992C112.43 481.789 111.375 478.469 110.281 475.031C109.188 471.594 108.289 468.82 107.586 466.711C106.805 469.914 105.945 473.117 105.008 476.32C104.148 479.445 103.289 482.375 102.43 485.109C101.57 487.766 100.828 490.031 100.203 491.906L79.8125 545.93H135.828Z" fill="#005138"/>
<path d="M162.898 1238L141.805 1183.62H73.1328L52.1562 1238H32L99.0312 1065.97H116.961L183.523 1238H162.898ZM135.828 1165.93L115.789 1111.91C115.32 1110.5 114.539 1108.2 113.445 1104.99C112.43 1101.79 111.375 1098.47 110.281 1095.03C109.188 1091.59 108.289 1088.82 107.586 1086.71C106.805 1089.91 105.945 1093.12 105.008 1096.32C104.148 1099.45 103.289 1102.38 102.43 1105.11C101.57 1107.77 100.828 1110.03 100.203 1111.91L79.8125 1165.93H135.828Z" fill="#005138"/>
<path d="M1383.9 308L1362.8 253.625H1294.13L1273.16 308H1253L1320.03 135.969H1337.96L1404.52 308H1383.9ZM1356.83 235.93L1336.79 181.906C1336.32 180.5 1335.54 178.195 1334.45 174.992C1333.43 171.789 1332.38 168.469 1331.28 165.031C1330.19 161.594 1329.29 158.82 1328.59 156.711C1327.8 159.914 1326.95 163.117 1326.01 166.32C1325.15 169.445 1324.29 172.375 1323.43 175.109C1322.57 177.766 1321.83 180.031 1321.2 181.906L1300.81 235.93H1356.83Z" fill="#005138"/>
<path d="M1383.9 928L1362.8 873.625H1294.13L1273.16 928H1253L1320.03 755.969H1337.96L1404.52 928H1383.9ZM1356.83 855.93L1336.79 801.906C1336.32 800.5 1335.54 798.195 1334.45 794.992C1333.43 791.789 1332.38 788.469 1331.28 785.031C1330.19 781.594 1329.29 778.82 1328.59 776.711C1327.8 779.914 1326.95 783.117 1326.01 786.32C1325.15 789.445 1324.29 792.375 1323.43 795.109C1322.57 797.766 1321.83 800.031 1321.2 801.906L1300.81 855.93H1356.83Z" fill="#005138"/>
<path d="M976.898 618L955.805 563.625H887.133L866.156 618H846L913.031 445.969H930.961L997.523 618H976.898ZM949.828 545.93L929.789 491.906C929.32 490.5 928.539 488.195 927.445 484.992C926.43 481.789 925.375 478.469 924.281 475.031C923.188 471.594 922.289 468.82 921.586 466.711C920.805 469.914 919.945 473.117 919.008 476.32C918.148 479.445 917.289 482.375 916.43 485.109C915.57 487.766 914.828 490.031 914.203 491.906L893.812 545.93H949.828Z" fill="#005138"/>
<path d="M976.898 1238L955.805 1183.62H887.133L866.156 1238H846L913.031 1065.97H930.961L997.523 1238H976.898ZM949.828 1165.93L929.789 1111.91C929.32 1110.5 928.539 1108.2 927.445 1104.99C926.43 1101.79 925.375 1098.47 924.281 1095.03C923.188 1091.59 922.289 1088.82 921.586 1086.71C920.805 1089.91 919.945 1093.12 919.008 1096.32C918.148 1099.45 917.289 1102.38 916.43 1105.11C915.57 1107.77 914.828 1110.03 914.203 1111.91L893.812 1165.93H949.828Z" fill="#005138"/>
</svg>
