<svg width="20" height="30" viewBox="0 0 20 30" fill="none" xmlns="http://www.w3.org/2000/svg">
<path fill-rule="evenodd" clip-rule="evenodd" d="M10 12.2458C12.5104 12.2458 14.5455 10.3552 14.5455 8.02309C14.5455 5.69097 12.5104 3.80041 10 3.80041C7.48961 3.80041 5.45455 5.69097 5.45455 8.02309C5.45455 10.3552 7.48961 12.2458 10 12.2458ZM10 10.5567C11.5062 10.5567 12.7273 9.42236 12.7273 8.02309C12.7273 6.62381 11.5062 5.48948 10 5.48948C8.49377 5.48948 7.27273 6.62381 7.27273 8.02309C7.27273 9.42236 8.49377 10.5567 10 10.5567Z" fill="#004731"/>
<path fill-rule="evenodd" clip-rule="evenodd" d="M18.6364 8.02309C18.6364 12.4541 14.7697 16.0462 10 16.0462C5.23027 16.0462 1.36364 12.4541 1.36364 8.02309C1.36364 3.59206 5.23027 0 10 0C14.7697 0 18.6364 3.59206 18.6364 8.02309ZM10 14.3571C13.7656 14.3571 16.8182 11.5213 16.8182 8.02309C16.8182 4.52491 13.7656 1.68907 10 1.68907C6.23442 1.68907 3.18182 4.52491 3.18182 8.02309C3.18182 11.5213 6.23442 14.3571 10 14.3571Z" fill="#004731"/>
<path fill-rule="evenodd" clip-rule="evenodd" d="M18.2595 19.2424C17.2235 19.9091 16.073 20.4034 14.8594 20.7054L14.8135 20.7167C14.6065 20.7673 14.3977 20.8123 14.1873 20.8517C14.1579 20.8571 14.1285 20.8625 14.0991 20.8678L13.5454 20.9669C13.1973 21.0292 13.0657 21.4278 13.3164 21.6607L18.178 26.1771C19.1641 27.0931 19.1103 28.5929 18.0609 29.4459C17.1058 30.2223 15.6663 30.1777 14.7689 29.3441L10.1656 25.0677C10.0742 24.9827 9.92585 24.9827 9.83438 25.0677L5.23106 29.3441C4.33367 30.1777 2.89421 30.2223 1.93913 29.4459C0.889702 28.5929 0.835947 27.0931 1.82197 26.1771L6.68359 21.6607C6.93429 21.4278 6.80275 21.0292 6.45461 20.9669L5.90095 20.8678C5.87151 20.8625 5.8421 20.8571 5.81272 20.8517C5.60233 20.8123 5.3935 20.7673 5.18649 20.7167L5.14063 20.7054C3.92703 20.4034 2.77651 19.9091 1.74054 19.2424L1.21878 18.9066C0.455445 18.4154 0 17.6076 0 16.745C0 15.1461 1.88613 14.1655 3.35307 15.0018L4.51102 15.6619C4.836 15.8471 5.18212 15.9983 5.54301 16.1126L6.23124 16.3305C8.6747 17.1044 11.3253 17.1044 13.7688 16.3305L14.457 16.1126C14.8179 15.9983 15.164 15.8471 15.489 15.6619L16.6469 15.0018C18.1139 14.1655 20 15.1461 20 16.745C20 17.6076 19.5446 18.4154 18.7812 18.9066L18.2595 19.2424ZM14.3554 17.9293L15.0437 17.7113C15.5319 17.5567 16.0002 17.3521 16.4399 17.1015L17.5979 16.4414C17.8533 16.2958 18.1818 16.4665 18.1818 16.745C18.1818 17.0535 18.0189 17.3424 17.7459 17.5181L17.2241 17.8539C16.1817 18.5247 15.0002 18.9863 13.755 19.2092L13.2013 19.3084C11.4216 19.627 10.7491 21.6644 12.0308 22.855L16.8924 27.3714C17.1347 27.5965 17.1215 27.9651 16.8636 28.1748C16.6289 28.3655 16.2751 28.3546 16.0546 28.1497L11.4513 23.8733C10.6498 23.1287 9.35024 23.1287 8.54873 23.8733L3.94541 28.1497C3.72487 28.3546 3.37112 28.3656 3.13641 28.1748C2.87851 27.9651 2.8653 27.5965 3.10761 27.3714L7.96924 22.855C9.25088 21.6644 8.57841 19.627 6.79866 19.3084L6.245 19.2092C4.9998 18.9863 3.8183 18.5247 2.77587 17.8539L2.25411 17.5181C1.98108 17.3424 1.81818 17.0535 1.81818 16.745C1.81818 16.4665 2.14666 16.2958 2.40213 16.4414L3.56008 17.1015C3.99977 17.3521 4.46806 17.5567 4.95633 17.7113L5.64456 17.9293C8.4684 18.8236 11.5316 18.8236 14.3554 17.9293Z" fill="#004731"/>
</svg>
