<svg width="30" height="30" viewBox="0 0 30 30" fill="none" xmlns="http://www.w3.org/2000/svg">
<path d="M22.6468 30C21.0671 30 19.4035 29.6233 17.6841 28.8977C16.0065 28.186 14.315 27.2093 12.6654 26.0233C11.0298 24.8233 9.45014 23.4837 7.95433 22.0186C6.47251 20.5256 5.13048 18.9488 3.94222 17.3302C2.73998 15.6558 1.7754 13.9814 1.0904 12.3628C0.363467 10.6326 0 8.95814 0 7.3814C0 6.29302 0.195713 5.26046 0.573159 4.29767C0.964585 3.30698 1.59366 2.38605 2.44641 1.5907C3.52283 0.530233 4.75303 0 6.0671 0C6.6123 0 7.17148 0.125581 7.64679 0.348837C8.19199 0.6 8.65331 0.976744 8.98882 1.47907L12.2321 6.04186C12.5256 6.44651 12.7493 6.83721 12.9031 7.22791C13.0848 7.64651 13.1827 8.06512 13.1827 8.46977C13.1827 9 13.0289 9.51628 12.7353 10.0047C12.5256 10.3814 12.2041 10.786 11.7987 11.1907L10.8481 12.1814C10.8621 12.2233 10.876 12.2512 10.89 12.2791C11.0578 12.5721 11.3933 13.0744 12.0363 13.8279C12.7213 14.6093 13.3644 15.3209 14.0075 15.9767C14.8322 16.786 15.5172 17.4279 16.1603 17.9581C16.9571 18.6279 17.4744 18.9628 17.7819 19.1163L17.754 19.186L18.7745 18.1814C19.2078 17.7488 19.6272 17.4279 20.0326 17.2186C20.8015 16.7442 21.7801 16.6605 22.7586 17.0651C23.1221 17.2186 23.5135 17.4279 23.9329 17.7209L28.5741 21.014C29.0913 21.3628 29.4688 21.8093 29.6925 22.3395C29.9021 22.8698 30 23.3581 30 23.8465C30 24.5163 29.8462 25.186 29.5527 25.814C29.2591 26.4419 28.8956 26.986 28.4343 27.4884C27.6375 28.3674 26.7707 28.9953 25.7642 29.4C24.7996 29.7907 23.7512 30 22.6468 30ZM6.0671 2.09302C5.29823 2.09302 4.58528 2.42791 3.90028 3.09767C3.25722 3.69767 2.80988 4.35349 2.53029 5.06512C2.23672 5.7907 2.09692 6.55814 2.09692 7.3814C2.09692 8.67907 2.40447 10.0884 3.01957 11.5395C3.64865 13.0186 4.52936 14.5535 5.64772 16.0884C6.76608 17.6233 8.03821 19.1163 9.43616 20.5256C10.8341 21.907 12.3439 23.1907 13.8956 24.3209C15.4054 25.4233 16.9571 26.3163 18.4949 26.9581C20.8854 27.9767 23.1221 28.214 24.9674 27.4465C25.6803 27.1535 26.3094 26.707 26.8826 26.0651C27.2041 25.7163 27.4557 25.3395 27.6654 24.893C27.8332 24.5442 27.9171 24.1814 27.9171 23.8186C27.9171 23.5953 27.8751 23.3721 27.7633 23.1209C27.7213 23.0372 27.6375 22.8837 27.3719 22.7023L22.7307 19.4093C22.4511 19.214 22.1994 19.0744 21.9618 18.9767C21.6542 18.8512 21.5284 18.7256 21.0531 19.0186C20.7735 19.1581 20.5219 19.3674 20.2423 19.6465L19.1799 20.693C18.6347 21.2233 17.7959 21.3488 17.1528 21.1116L16.7754 20.9442C16.2022 20.6372 15.5312 20.1628 14.7903 19.5349C14.1193 18.9628 13.3924 18.293 12.5117 17.4279C11.8267 16.7302 11.1417 15.9907 10.4287 15.1674C9.77167 14.4 9.29637 13.7442 9.0028 13.2L8.83504 12.7814C8.75117 12.4605 8.72321 12.2791 8.72321 12.0837C8.72321 11.5814 8.90494 11.1349 9.25443 10.786L10.3029 9.69767C10.5825 9.4186 10.7922 9.15349 10.932 8.91628C11.0438 8.73488 11.0857 8.5814 11.0857 8.44186C11.0857 8.33023 11.0438 8.16279 10.9739 7.99535C10.8761 7.77209 10.7223 7.52093 10.5266 7.25581L7.28332 2.67907C7.14352 2.48372 6.97577 2.34419 6.76608 2.24651C6.54241 2.14884 6.30475 2.09302 6.0671 2.09302ZM17.754 19.2L17.5303 20.1488L17.9077 19.1721C17.8378 19.1581 17.7819 19.1721 17.754 19.2Z" fill="#004731"/>
</svg>
