<svg width="49" height="30" viewBox="0 0 49 30" fill="none" xmlns="http://www.w3.org/2000/svg">
<path fill-rule="evenodd" clip-rule="evenodd" d="M10.8817 2.31342C12.4234 6.01579 14.269 9.58486 16.3992 12.9848C16.6156 13.3301 16.8348 13.6736 17.057 14.0153C17.2595 14.3269 17.4645 14.6369 17.6718 14.9454L18.1707 15.6876C18.346 15.9485 18.7559 15.8254 18.7559 15.5119V6.60343C18.7559 5.85588 18.5226 5.12667 18.088 4.51595L17.4846 3.66801C16.8505 2.77696 16.9256 1.56854 17.6652 0.761498C18.1097 0.276501 18.7399 0 19.4007 0H26.3079C27.9941 0 29.361 1.35589 29.361 3.02847V12.7869C29.361 13.109 29.7488 13.2757 29.9858 13.0553C30.0812 12.9666 30.176 12.8771 30.27 12.7869C30.6485 12.4235 31.015 12.0484 31.3689 11.6624C31.4865 11.534 31.6028 11.4045 31.7177 11.2737C32.6722 10.187 33.5294 9.01782 34.2786 7.77917L37.8908 1.80742C38.5691 0.686103 39.7907 0 41.1091 0H45.6614C46.9629 0 48.0181 1.04661 48.0181 2.33766V2.79713C48.0181 3.51576 47.8177 4.22039 47.4391 4.83309L40.7051 15.7315C40.6158 15.876 40.6309 16.0611 40.7425 16.1895L45.465 21.6234L48.2992 25.2156C48.7533 25.7912 49 26.501 49 27.2318C49 28.7607 47.7506 30 46.2093 30H41.7549C40.6024 30 39.4899 29.5812 38.6277 28.8227L30.8642 21.9936C30.3573 21.5478 29.5574 21.9047 29.5574 22.5766V27.2727C29.5574 28.779 28.3264 30 26.8079 30H22.5427C21.7314 30 20.9312 29.8126 20.2055 29.4527L19.3871 29.0468C14.209 26.4787 9.78328 22.6335 6.53457 17.8803L4.99533 15.6283C4.08922 14.3026 3.29387 12.9056 2.61721 11.4513L1.36344 8.75674C0.528888 6.96314 0.0657882 5.02162 0.00157996 3.04723C-0.0526254 1.38042 1.29486 0 2.9761 0H7.39502C8.92218 0 10.2987 0.913315 10.8817 2.31342ZM46.4433 26.6563L43.6435 23.1077L38.9575 17.7158C38.1767 16.8174 38.0709 15.5213 38.6958 14.5099L45.4298 3.61151C45.5812 3.36643 45.6614 3.08458 45.6614 2.79713V2.33766H41.1091C40.6186 2.33766 40.164 2.59294 39.9117 3.01014L36.2995 8.98189C35.0093 11.1147 33.427 13.0596 31.5976 14.7608C29.8555 16.3808 27.0043 15.1555 27.0043 12.7869V3.02847C27.0043 2.64695 26.6925 2.33766 26.3079 2.33766H19.4225L20.0133 3.16785C20.7286 4.17298 21.1126 5.37312 21.1126 6.60343V15.5119C21.1126 18.1383 17.6785 19.1697 16.2098 16.9843L15.711 16.2421C12.9505 12.1348 10.6034 7.76839 8.7035 3.20585C8.48471 2.68041 7.96813 2.33766 7.39502 2.33766H2.9761C2.6262 2.33766 2.34575 2.62496 2.35704 2.97186C2.41107 4.63356 2.80083 6.26759 3.50321 7.77713L4.75698 10.4717C5.37982 11.8103 6.11193 13.0962 6.94598 14.3165L8.48522 16.5685C11.5073 20.9901 15.6242 24.567 20.4411 26.9559L21.2595 27.3619C21.6579 27.5595 22.0972 27.6623 22.5427 27.6623H26.8079C27.0248 27.6623 27.2007 27.4879 27.2007 27.2727V22.5766C27.2007 19.889 30.4005 18.4614 32.4278 20.2446L40.1913 27.0737C40.6224 27.4529 41.1787 27.6623 41.7549 27.6623H46.2093C46.449 27.6623 46.6433 27.4696 46.6433 27.2318C46.6433 27.0232 46.5729 26.8206 46.4433 26.6563Z" fill="#004731"/>
</svg>
