<svg width="28" height="45" viewBox="0 0 28 45" fill="none" xmlns="http://www.w3.org/2000/svg">
<path fill-rule="evenodd" clip-rule="evenodd" d="M14 18.3686C17.5145 18.3686 20.3636 15.5328 20.3636 12.0346C20.3636 8.53645 17.5145 5.70061 14 5.70061C10.4855 5.70061 7.63636 8.53645 7.63636 12.0346C7.63636 15.5328 10.4855 18.3686 14 18.3686ZM14 15.835C16.1087 15.835 17.8182 14.1335 17.8182 12.0346C17.8182 9.93572 16.1087 8.23422 14 8.23422C11.8913 8.23422 10.1818 9.93572 10.1818 12.0346C10.1818 14.1335 11.8913 15.835 14 15.835Z" fill="#B4B4B4"/>
<path fill-rule="evenodd" clip-rule="evenodd" d="M26.0909 12.0346C26.0909 18.6812 20.6776 24.0693 14 24.0693C7.32238 24.0693 1.90909 18.6812 1.90909 12.0346C1.90909 5.38809 7.32238 0 14 0C20.6776 0 26.0909 5.38809 26.0909 12.0346ZM14 21.5356C19.2718 21.5356 23.5455 17.2819 23.5455 12.0346C23.5455 6.78736 19.2718 2.53361 14 2.53361C8.72819 2.53361 4.45455 6.78736 4.45455 12.0346C4.45455 17.2819 8.72819 21.5356 14 21.5356Z" fill="#B4B4B4"/>
<path fill-rule="evenodd" clip-rule="evenodd" d="M25.5633 28.8636C24.1129 29.8636 22.5022 30.6051 20.8031 31.0581L20.7389 31.075C20.4491 31.1509 20.1567 31.2185 19.8622 31.2775C19.8211 31.2857 19.7799 31.2938 19.7387 31.3017L18.9635 31.4504C18.4762 31.5439 18.292 32.1417 18.643 32.491L25.4493 39.2656C26.8297 40.6396 26.7544 42.8893 25.2852 44.1689C23.9481 45.3334 21.9329 45.2666 20.6765 44.0161L14.2319 37.6015C14.1038 37.474 13.8962 37.474 13.7681 37.6015L7.32348 44.0161C6.06714 45.2666 4.0519 45.3334 2.71478 44.1689C1.24558 42.8893 1.17033 40.6396 2.55075 39.2656L9.35702 32.491C9.70801 32.1417 9.52385 31.5439 9.03645 31.4504L8.26133 31.3017C8.22011 31.2938 8.17894 31.2857 8.1378 31.2775C7.84326 31.2185 7.5509 31.1509 7.26108 31.075L7.19688 31.0581C5.49784 30.6051 3.88712 29.8636 2.43675 28.8636L1.70629 28.3599C0.637623 27.6231 0 26.4114 0 25.1175C0 22.7191 2.64059 21.2483 4.6943 22.5026L6.31543 23.4928C6.7704 23.7707 7.25497 23.9974 7.76022 24.1689L8.72373 24.4958C12.1446 25.6566 15.8554 25.6566 19.2763 24.4958L20.2398 24.1689C20.745 23.9974 21.2296 23.7707 21.6846 23.4928L23.3057 22.5026C25.3594 21.2483 28 22.7191 28 25.1175C28 26.4114 27.3624 27.6231 26.2937 28.3599L25.5633 28.8636ZM20.0976 26.8939L21.0611 26.5669C21.7447 26.335 22.4003 26.0282 23.0159 25.6522L24.637 24.6621C24.9947 24.4436 25.4545 24.6998 25.4545 25.1175C25.4545 25.5803 25.2265 26.0137 24.8442 26.2772L24.1138 26.7809C22.6544 27.7871 21.0003 28.4795 19.257 28.8139L18.4819 28.9625C15.9902 29.4405 15.0488 32.4966 16.8431 34.2826L23.6493 41.0571C23.9886 41.3948 23.9701 41.9477 23.609 42.2621C23.2804 42.5483 22.7852 42.5319 22.4764 42.2246L16.0318 35.81C14.9097 34.6931 13.0903 34.6931 11.9682 35.81L5.52357 42.2246C5.21482 42.5319 4.71957 42.5483 4.39097 42.2621C4.02991 41.9477 4.01142 41.3948 4.35066 41.0571L11.1569 34.2826C12.9512 32.4966 12.0098 29.4405 9.51812 28.9625L8.743 28.8139C6.99973 28.4795 5.34562 27.7871 3.88622 26.7809L3.15575 26.2772C2.77352 26.0137 2.54545 25.5803 2.54545 25.1175C2.54545 24.6998 3.00532 24.4436 3.36298 24.6621L4.98412 25.6522C5.59968 26.0282 6.25528 26.335 6.93887 26.5669L7.90238 26.8939C11.8558 28.2354 16.1442 28.2354 20.0976 26.8939Z" fill="#B4B4B4"/>
</svg>
