<svg width="45" height="45" viewBox="0 0 45 45" fill="none" xmlns="http://www.w3.org/2000/svg">
<path d="M33.9702 45C31.6007 45 29.1053 44.4349 26.5261 43.3465C24.0098 42.2791 21.4725 40.814 18.9981 39.0349C16.5447 37.2349 14.1752 35.2256 11.9315 33.0279C9.70876 30.7884 7.69571 28.4233 5.91333 25.9953C4.10997 23.4837 2.66309 20.9721 1.6356 18.5442C0.5452 15.9488 0 13.4372 0 11.0721C0 9.43953 0.293569 7.8907 0.859739 6.44651C1.44688 4.96046 2.39049 3.57907 3.66962 2.38605C5.28425 0.795349 7.12954 0 9.10065 0C9.91845 0 10.7572 0.188372 11.4702 0.523256C12.288 0.9 12.98 1.46512 13.4832 2.2186L18.3481 9.06279C18.7884 9.66977 19.124 10.2558 19.3546 10.8419C19.6272 11.4698 19.774 12.0977 19.774 12.7047C19.774 13.5 19.5433 14.2744 19.103 15.007C18.7884 15.5721 18.3061 16.1791 17.698 16.786L16.2721 18.2721C16.2931 18.3349 16.3141 18.3767 16.335 18.4186C16.5867 18.8581 17.0899 19.6116 18.0545 20.7419C19.082 21.914 20.0466 22.9814 21.0112 23.9651C22.2484 25.1791 23.2759 26.1419 24.2404 26.9372C25.4357 27.9419 26.2703 28.4624 26.7317 28.6927L27 28.5L28.1617 27.2721C28.8117 26.6233 29.4408 26.1419 30.0489 25.8279C31.2022 25.1163 32.6701 24.9907 34.1379 25.5977C34.6831 25.8279 35.2703 26.1419 35.8993 26.5814L42.8611 31.5209C43.637 32.0442 44.2032 32.714 44.5387 33.5093C44.8532 34.3047 45 35.0372 45 35.7698C45 36.7744 44.7693 37.7791 44.329 38.7209C43.8886 39.6628 43.3434 40.4791 42.6514 41.2326C41.4562 42.5512 40.1561 43.493 38.6463 44.1C37.1994 44.686 35.6268 45 33.9702 45ZM9.10065 3.13953C7.94734 3.13953 6.87791 3.64186 5.85042 4.64651C4.88583 5.54651 4.21482 6.53023 3.79543 7.59767C3.35508 8.68605 3.14539 9.83721 3.14539 11.0721C3.14539 13.0186 3.60671 15.1326 4.52936 17.3093C5.47297 19.5279 6.79403 21.8302 8.47157 24.1326C10.1491 26.4349 12.0573 28.6744 14.1542 30.7884C16.2512 32.8605 18.5158 34.786 20.8434 36.4814C23.1081 38.1349 25.4357 39.4744 27.7423 40.4372C31.3281 41.9651 34.6831 42.3209 37.4511 41.1698C38.5205 40.7302 39.4641 40.0605 40.3239 39.0977C40.8061 38.5744 41.1836 38.0093 41.4981 37.3395C41.7498 36.8163 41.8756 36.2721 41.8756 35.7279C41.8756 35.393 41.8127 35.0581 41.6449 34.6814C41.582 34.5558 41.4562 34.3256 41.0578 34.0535L34.096 29.114C33.6766 28.8209 33.2992 28.6116 32.9427 28.4651C32.4814 28.2767 32.2926 28.0884 31.5797 28.5279C31.1603 28.7372 30.7828 29.0512 30.3635 29.4698L28.7698 31.0395C27.952 31.8349 26.6938 32.0233 25.7293 31.6674L25.1631 31.4163C24.3034 30.9558 23.2968 30.2442 22.1855 29.3023C21.1789 28.4442 20.0885 27.4395 18.7675 26.1419C17.74 25.0953 16.7125 23.986 15.6431 22.7512C14.6575 21.6 13.9445 20.6163 13.5042 19.8L13.2526 19.1721C13.1267 18.6907 13.0848 18.4186 13.0848 18.1256C13.0848 17.3721 13.3574 16.7023 13.8816 16.1791L15.4543 14.5465C15.8737 14.1279 16.1883 13.7302 16.3979 13.3744C16.5657 13.1023 16.6286 12.8721 16.6286 12.6628C16.6286 12.4953 16.5657 12.2442 16.4609 11.993C16.3141 11.6581 16.0834 11.2814 15.7898 10.8837L10.925 4.0186C10.7153 3.72558 10.4637 3.51628 10.1491 3.36977C9.81361 3.22326 9.45713 3.13953 9.10065 3.13953Z" fill="#B4B4B4"/>
</svg>
