<svg width="73" height="45" viewBox="0 0 73 45" fill="none" xmlns="http://www.w3.org/2000/svg">
<path fill-rule="evenodd" clip-rule="evenodd" d="M16.2115 3.47013C18.5083 9.02368 21.2579 14.3773 24.4315 19.4773C24.7538 19.9951 25.0804 20.5104 25.4114 21.023C25.7132 21.4903 26.0185 21.9554 26.3274 22.4182L27.0706 23.5315C27.3318 23.9228 27.9425 23.7381 27.9425 23.2678V9.90514C27.9425 8.78382 27.5949 7.69 26.9474 6.77392L26.0485 5.50202C25.1038 4.16543 25.2157 2.35282 26.3176 1.14225C26.9798 0.414751 27.9186 0 28.903 0H39.1934C41.7055 0 43.7419 2.03384 43.7419 4.54271V19.1803C43.7419 19.6636 44.3197 19.9136 44.6727 19.583C44.8149 19.4499 44.956 19.3156 45.0961 19.1803C45.66 18.6352 46.206 18.0726 46.7332 17.4936C46.9085 17.301 47.0817 17.1067 47.2529 16.9105C48.6749 15.2805 49.952 13.5267 51.0682 11.6688L56.4496 2.71113C57.4601 1.02915 59.2801 0 61.2441 0H68.0261C69.9652 0 71.5371 1.56991 71.5371 3.50649V4.1957C71.5371 5.27364 71.2386 6.33058 70.6746 7.24963L60.6423 23.5972C60.5093 23.814 60.5318 24.0917 60.698 24.2842L67.7335 32.4351L71.9559 37.8234C72.6324 38.6868 73 39.7515 73 40.8478C73 43.141 71.1386 45 68.8425 45H62.2063C60.4894 45 58.8319 44.3718 57.5473 43.234L45.9813 32.9905C45.2262 32.3217 44.0345 32.8571 44.0345 33.865V40.9091C44.0345 43.1684 42.2006 45 39.9383 45H33.584C32.3753 45 31.1832 44.7189 30.1021 44.1791L28.8829 43.5702C21.1686 39.718 14.5751 33.9503 9.73518 26.8205L7.44202 23.4424C6.09211 21.4538 4.90719 19.3584 3.89911 17.177L2.03125 13.1351C0.787935 10.4447 0.098011 7.53243 0.00235382 4.57084C-0.0784012 2.07063 1.92908 0 4.43378 0H11.0171C13.2922 0 15.3429 1.36997 16.2115 3.47013ZM69.191 39.9845L65.0199 34.6616L58.0387 26.5738C56.8754 25.2261 56.7178 23.2819 57.6488 21.7649L67.6811 5.41727C67.9067 5.04965 68.0261 4.62688 68.0261 4.1957V3.50649H61.2441C60.5134 3.50649 59.8362 3.88941 59.4602 4.51521L54.0788 13.4728C52.1568 16.6721 49.7993 19.5894 47.074 22.1411C44.4786 24.5712 40.2309 22.7333 40.2309 19.1803V4.54271C40.2309 3.97042 39.7664 3.50649 39.1934 3.50649H28.9356L29.8158 4.75178C30.8814 6.25947 31.4535 8.05968 31.4535 9.90514V23.2678C31.4535 27.2074 26.3374 28.7545 24.1493 25.4765L23.4061 24.3632C19.2935 18.2022 15.7968 11.6526 12.9664 4.80877C12.6405 4.02062 11.8709 3.50649 11.0171 3.50649H4.43378C3.9125 3.50649 3.49469 3.93744 3.5115 4.45779C3.59201 6.95034 4.17267 9.40138 5.21907 11.6657L7.08693 15.7076C8.01484 17.7155 9.10552 19.6443 10.3481 21.4747L12.6412 24.8528C17.1435 31.4851 23.2769 36.8505 30.453 40.4339L31.6723 41.0428C32.2659 41.3392 32.9204 41.4935 33.584 41.4935H39.9383C40.2615 41.4935 40.5235 41.2319 40.5235 40.9091V33.865C40.5235 29.8335 45.2906 27.6921 48.3108 30.3669L59.8768 40.6105C60.5191 41.1794 61.3478 41.4935 62.2063 41.4935H68.8425C69.1996 41.4935 69.489 41.2044 69.489 40.8478C69.489 40.5349 69.3841 40.231 69.191 39.9845Z" fill="#B4B4B4"/>
</svg>
