<svg width="94" height="27" viewBox="0 0 94 27" fill="none" xmlns="http://www.w3.org/2000/svg">
<path fill-rule="evenodd" clip-rule="evenodd" d="M8.16261 0.933342C7.46362 0.311114 6.49023 0 5.24244 0C4.37592 0 3.58739 0.079246 2.87684 0.237738C2.17207 0.39036 1.53952 0.610488 0.979167 0.898122L1.94967 3.11701C2.42337 2.89982 2.89706 2.72372 3.37076 2.5887C3.84446 2.44782 4.2806 2.37738 4.6792 2.37738C5.0547 2.37738 5.3522 2.47717 5.57172 2.67675C5.79701 2.87047 5.90966 3.19332 5.90966 3.64532V3.82142L4.27194 3.87425C2.87973 3.93882 1.81969 4.22939 1.09181 4.74596C0.363938 5.25665 0 6.04324 0 7.10573C0 7.83362 0.129978 8.4353 0.389934 8.91078C0.649889 9.38038 1.00516 9.73259 1.45575 9.96739C1.91212 10.2022 2.42337 10.3196 2.98949 10.3196C3.53251 10.3196 3.99176 10.2668 4.36726 10.1611C4.74275 10.0613 5.07491 9.90282 5.36375 9.68563C5.65259 9.46256 5.93566 9.17493 6.21294 8.82272H6.28226L6.92349 10.1435H9.2111V3.60129C9.2111 2.43902 8.8616 1.5497 8.16261 0.933342ZM5.12113 5.71452L5.92699 5.6793V6.45415C5.92699 6.90027 5.77391 7.26128 5.46774 7.53718C5.16734 7.8072 4.8034 7.94221 4.37592 7.94221C4.06975 7.94221 3.82135 7.86297 3.63072 7.70447C3.44586 7.54011 3.35343 7.28183 3.35343 6.92963C3.35343 6.55394 3.48341 6.26337 3.74336 6.05792C4.0091 5.85247 4.46835 5.738 5.12113 5.71452Z" fill="#B4B4B4"/>
<path d="M22.0183 0.184907H18.3789L14.8695 5.01011V0.184907H11.568V10.1435H14.8695V5.08936L18.5435 10.1435H22.3129L18.3269 4.95728L22.0183 0.184907Z" fill="#B4B4B4"/>
<path fill-rule="evenodd" clip-rule="evenodd" d="M31.056 0.933342C30.3571 0.311114 29.3837 0 28.1359 0C27.2694 0 26.4808 0.079246 25.7703 0.237738C25.0655 0.39036 24.433 0.610488 23.8726 0.898122L24.8431 3.11701C25.3168 2.89982 25.7905 2.72372 26.2642 2.5887C26.7379 2.44782 27.174 2.37738 27.5726 2.37738C27.9481 2.37738 28.2456 2.47717 28.4652 2.67675C28.6904 2.87047 28.8031 3.19332 28.8031 3.64532V3.82142L27.1654 3.87425C25.7732 3.93882 24.7131 4.22939 23.9852 4.74596C23.2574 5.25665 22.8934 6.04324 22.8934 7.10573C22.8934 7.83362 23.0234 8.4353 23.2834 8.91078C23.5433 9.38038 23.8986 9.73259 24.3492 9.96739C24.8056 10.2022 25.3168 10.3196 25.8829 10.3196C26.4259 10.3196 26.8852 10.2668 27.2607 10.1611C27.6362 10.0613 27.9683 9.90282 28.2572 9.68563C28.546 9.46256 28.8291 9.17493 29.1064 8.82272H29.1757L29.8169 10.1435H32.1045V3.60129C32.1045 2.43902 31.755 1.5497 31.056 0.933342ZM28.0146 5.71452L28.8204 5.6793V6.45415C28.8204 6.90027 28.6673 7.26128 28.3612 7.53718C28.0608 7.8072 27.6968 7.94221 27.2694 7.94221C26.9632 7.94221 26.7148 7.86297 26.5242 7.70447C26.3393 7.54011 26.2469 7.28183 26.2469 6.92963C26.2469 6.55394 26.3768 6.26337 26.6368 6.05792C26.9025 5.85247 27.3618 5.738 28.0146 5.71452Z" fill="#B4B4B4"/>
<path fill-rule="evenodd" clip-rule="evenodd" d="M43.8979 7.65164V0.184907H36.3591C36.2783 1.14173 36.1454 2.07801 35.9605 2.99374C35.7815 3.90947 35.5562 4.7665 35.2847 5.56483C35.0131 6.35729 34.7012 7.0529 34.3488 7.65164H33.4823V13.7888H36.3765V10.1435H42.4508V13.7888H45.3449V7.65164H43.8979ZM38.9154 2.67675H40.5964V7.65164H37.6589C37.8842 7.08225 38.0748 6.53046 38.2308 5.99628C38.3926 5.46211 38.5283 4.92499 38.6381 4.38495C38.7478 3.83903 38.8403 3.26963 38.9154 2.67675Z" fill="#B4B4B4"/>
<path fill-rule="evenodd" clip-rule="evenodd" d="M53.5855 0.519502C52.8981 0.179037 52.0807 0.00880511 51.1333 0.00880511C50.1743 0.00880511 49.3338 0.196648 48.6117 0.572332C47.8896 0.942147 47.3264 1.51448 46.922 2.28933C46.5234 3.05831 46.3241 4.03861 46.3241 5.23024C46.3241 6.40425 46.5465 7.36695 46.9913 8.11832C47.4361 8.86968 48.0456 9.42441 48.8197 9.78248C49.5938 10.1406 50.4747 10.3196 51.4626 10.3196C52.306 10.3196 53.005 10.2609 53.5595 10.1435C54.1141 10.0261 54.6283 9.84118 55.102 9.58877V7.16736C54.5589 7.42565 54.0304 7.61642 53.5162 7.7397C53.0079 7.86297 52.4475 7.9246 51.8352 7.9246C51.1362 7.9246 50.6047 7.75144 50.2408 7.4051C49.8768 7.05877 49.6804 6.60971 49.6515 6.05792H55.7345V4.55224C55.7345 3.54846 55.5468 2.70904 55.1713 2.03398C54.8016 1.35892 54.273 0.854096 53.5855 0.519502ZM50.2061 2.69436C50.4834 2.43021 50.83 2.29813 51.2459 2.29813C51.5694 2.29813 51.8381 2.37151 52.0518 2.51826C52.2713 2.65914 52.436 2.85579 52.5457 3.10821C52.6613 3.35475 52.7219 3.63358 52.7277 3.94469H49.7209C49.7671 3.37529 49.9288 2.95852 50.2061 2.69436Z" fill="#B4B4B4"/>
<path d="M70.5 10.1435V0.184907H66.0721L64.1224 6.30446L62.2161 0.184907H57.7015V10.1435H60.6477V5.37992C60.6477 4.83988 60.639 4.34386 60.6217 3.89186C60.6044 3.43986 60.5784 3.01722 60.5437 2.62392H60.5957L62.9699 10.1435H65.2402L67.6058 2.64153H67.6578C67.6232 3.02896 67.5972 3.4516 67.5798 3.90947C67.5625 4.36734 67.5538 4.83401 67.5538 5.30948V10.1435H70.5Z" fill="#B4B4B4"/>
<path d="M75.9331 4.06796V0.184907H72.9003V10.1435H76.4963L80.3263 3.67173C80.2974 3.91828 80.2743 4.20297 80.257 4.52583C80.2397 4.84281 80.2252 5.17154 80.2137 5.512C80.2021 5.85247 80.1964 6.18119 80.1964 6.49817V10.1435H83.2205V0.184907H79.5898L75.7944 6.63025C75.806 6.46589 75.8175 6.27805 75.8291 6.06672C75.8464 5.8554 75.8609 5.63527 75.8724 5.40634C75.8897 5.17741 75.9042 4.94847 75.9157 4.71954C75.9273 4.49061 75.9331 4.27342 75.9331 4.06796Z" fill="#B4B4B4"/>
<path fill-rule="evenodd" clip-rule="evenodd" d="M84.2343 10.1435H87.7351L89.6501 6.65667H90.6986V10.1435H94V0.184907H89.3381C88.0326 0.184907 86.9985 0.451996 86.236 0.986173C85.4734 1.52035 85.0922 2.31281 85.0922 3.36355C85.0922 3.86838 85.1673 4.31451 85.3175 4.70193C85.4734 5.08936 85.6785 5.41808 85.9327 5.6881C86.1869 5.95813 86.4642 6.17825 86.7646 6.34849L84.2343 10.1435ZM88.6796 4.15601C88.4832 3.95643 88.385 3.72456 88.385 3.46041C88.385 3.16691 88.4803 2.91743 88.6709 2.71198C88.8673 2.50065 89.185 2.39499 89.6241 2.39499H90.6986V4.45539H89.6761C89.2081 4.45539 88.876 4.3556 88.6796 4.15601Z" fill="#B4B4B4"/>
<path d="M0.649889 14.915V24.5698H1.31278V15.5291H6.55738V24.5698H7.21377V14.915H0.649889Z" fill="#B4B4B4"/>
<path fill-rule="evenodd" clip-rule="evenodd" d="M14.525 15.5754C13.9791 15.1351 13.1538 14.915 12.0489 14.915H9.82633V24.5698H10.4892V20.5811H11.8735C12.454 20.5811 12.961 20.5172 13.3942 20.3896C13.8275 20.2619 14.1892 20.0748 14.4795 19.8282C14.7698 19.5773 14.9864 19.2691 15.1294 18.9037C15.2724 18.5339 15.3439 18.109 15.3439 17.6292C15.3439 16.6958 15.0709 16.0112 14.525 15.5754ZM10.4892 15.5159H11.984C12.8981 15.5159 13.5719 15.6854 14.0051 16.0244C14.4427 16.3634 14.6615 16.9071 14.6615 17.6556C14.6615 18.2367 14.5467 18.6968 14.3171 19.0358C14.0918 19.3748 13.7668 19.6169 13.3422 19.7622C12.922 19.9075 12.4129 19.9801 11.815 19.9801H10.4892V15.5159Z" fill="#B4B4B4"/>
<path fill-rule="evenodd" clip-rule="evenodd" d="M24.7543 21.7301C24.9233 21.1226 25.0077 20.4556 25.0077 19.7292C25.0077 18.7078 24.8539 17.8273 24.5463 17.0876C24.243 16.3436 23.7903 15.7713 23.1881 15.3706C22.5902 14.9656 21.8536 14.7631 20.9784 14.7631C20.0772 14.7631 19.319 14.97 18.7038 15.3839C18.0929 15.7933 17.6315 16.37 17.3196 17.1141C17.0076 17.8581 16.8516 18.7254 16.8516 19.716C16.8516 20.4424 16.934 21.1094 17.0986 21.7169C17.2676 22.3245 17.5189 22.8506 17.8525 23.2952C18.1904 23.7399 18.615 24.0855 19.1262 24.3321C19.6418 24.5786 20.2441 24.7019 20.9329 24.7019C21.6175 24.7019 22.2154 24.5808 22.7266 24.3387C23.2379 24.0921 23.6625 23.7487 24.0004 23.3085C24.3384 22.8638 24.5896 22.3377 24.7543 21.7301ZM17.911 22.0207C17.6683 21.3603 17.547 20.5943 17.547 19.7226C17.547 18.8509 17.6705 18.0892 17.9174 17.4376C18.1687 16.7861 18.5478 16.2798 19.0548 15.9188C19.566 15.5578 20.2072 15.3773 20.9784 15.3773C22.0789 15.3773 22.9108 15.7581 23.474 16.5197C24.0372 17.277 24.3189 18.3468 24.3189 19.7292C24.3189 20.6097 24.1975 21.3779 23.9549 22.0339C23.7166 22.6899 23.3462 23.1984 22.8436 23.5594C22.3454 23.9204 21.7106 24.1009 20.9394 24.1009C20.1726 24.1009 19.5378 23.9182 19.0353 23.5528C18.5327 23.1874 18.1579 22.6767 17.911 22.0207Z" fill="#B4B4B4"/>
<path d="M29.4465 15.7074C29.9057 15.4961 30.4278 15.3905 31.0127 15.3905C31.381 15.3905 31.7406 15.4301 32.0915 15.5093C32.4425 15.5842 32.7848 15.7074 33.1184 15.8791L33.3783 15.2914C33.0274 15.1241 32.6548 14.9964 32.2605 14.9084C31.8662 14.8203 31.4525 14.7763 31.0192 14.7763C30.3217 14.7763 29.6999 14.8996 29.154 15.1461C28.6125 15.3927 28.1532 15.7383 27.7763 16.1829C27.4037 16.6276 27.1199 17.1515 26.9249 17.7546C26.7343 18.3534 26.639 19.0072 26.639 19.716C26.639 20.7198 26.7971 21.5959 27.1134 22.3443C27.4297 23.0927 27.8976 23.6739 28.5171 24.0877C29.141 24.4971 29.9101 24.7019 30.8243 24.7019C31.3182 24.7019 31.7536 24.6644 32.1305 24.5896C32.5075 24.5192 32.8476 24.4245 33.1509 24.3056V23.7113C32.8346 23.8214 32.4901 23.9138 32.1175 23.9887C31.7493 24.0591 31.3377 24.0943 30.8827 24.0943C30.1029 24.0943 29.4487 23.9138 28.9201 23.5528C28.3915 23.1918 27.9951 22.6833 27.7308 22.0273C27.4665 21.3669 27.3343 20.5965 27.3343 19.716C27.3343 19.0908 27.4145 18.5141 27.5748 17.9858C27.7394 17.4531 27.9777 16.993 28.2897 16.6056C28.606 16.2181 28.9916 15.9188 29.4465 15.7074Z" fill="#B4B4B4"/>
<path fill-rule="evenodd" clip-rule="evenodd" d="M37.6091 14.915H35.081V24.5698H37.908C38.5493 24.5698 39.1103 24.4729 39.5913 24.2792C40.0765 24.0811 40.4534 23.7795 40.7221 23.3745C40.995 22.9695 41.1315 22.4544 41.1315 21.8292C41.1315 21.3889 41.0557 21.0103 40.904 20.6933C40.7567 20.372 40.5314 20.1122 40.2281 19.9141C39.9249 19.716 39.5393 19.5795 39.0713 19.5046V19.4584C39.4613 19.3836 39.7884 19.2449 40.0527 19.0424C40.3213 18.8355 40.5228 18.5801 40.6571 18.2763C40.7957 17.9726 40.865 17.6314 40.865 17.2527C40.865 16.4427 40.6029 15.8505 40.0787 15.4763C39.5544 15.1021 38.7312 14.915 37.6091 14.915ZM37.7521 19.2075H35.7439V15.5159H37.5961C38.5016 15.5159 39.158 15.6568 39.5653 15.9386C39.9769 16.2203 40.1827 16.6782 40.1827 17.3122C40.1827 17.9373 39.9899 18.4106 39.6043 18.732C39.223 19.049 38.6056 19.2075 37.7521 19.2075ZM35.7439 23.9688V19.8018H37.7586C38.3435 19.8018 38.8331 19.8701 39.2273 20.0065C39.6259 20.1386 39.9249 20.3521 40.1242 20.6471C40.3278 20.9377 40.4296 21.3229 40.4296 21.8028C40.4296 22.5248 40.2152 23.0663 39.7862 23.4273C39.3573 23.7883 38.7226 23.9688 37.882 23.9688H35.7439Z" fill="#B4B4B4"/>
<path d="M43.1397 24.5698H48.1308V23.9556H43.8025V19.8018H47.8903V19.1877H43.8025V15.5291H48.1308V14.915H43.1397V24.5698Z" fill="#B4B4B4"/>
<path d="M61.473 27V23.9556H60.4462V14.915H59.7768V23.949H55.676V14.915H55.0066V23.949H50.8993V14.915H50.2364V24.5698H60.8361V27H61.473Z" fill="#B4B4B4"/>
<path d="M63.2082 24.5698H68.1994V23.9556H63.8711V19.8018H67.9589V19.1877H63.8711V15.5291H68.1994V14.915H63.2082V24.5698Z" fill="#B4B4B4"/>
<path d="M76.2645 24.5698H76.9274V14.915H76.2645V19.1943H70.9679V14.915H70.305V24.5698H70.9679V19.815H76.2645V24.5698Z" fill="#B4B4B4"/>
<path d="M80.1768 14.915H79.54V24.5698H80.2483L85.5969 15.9386H85.6359C85.6316 16.0574 85.6251 16.1873 85.6164 16.3282C85.6121 16.4691 85.6078 16.6188 85.6034 16.7773C85.5991 16.9358 85.5948 17.1009 85.5904 17.2726C85.5861 17.4398 85.5839 17.6115 85.5839 17.7877V24.5698H86.2208V14.915H85.5189L80.1703 23.5198H80.1249C80.1379 23.3921 80.1465 23.2578 80.1509 23.1169L80.1638 22.6877C80.1682 22.538 80.1703 22.3883 80.1703 22.2386C80.1747 22.0845 80.1768 21.9327 80.1768 21.783V14.915Z" fill="#B4B4B4"/>
<path d="M88.8269 24.5698H93.818V23.9556H89.4898V19.8018H93.5776V19.1877H89.4898V15.5291H93.818V14.915H88.8269V24.5698Z" fill="#B4B4B4"/>
</svg>
