<svg width="65" height="19" viewBox="0 0 65 19" fill="none" xmlns="http://www.w3.org/2000/svg">
<path fill-rule="evenodd" clip-rule="evenodd" d="M5.64436 0.656796C5.16101 0.218932 4.48792 0 3.62509 0C3.0259 0 2.48064 0.0557657 1.98931 0.167297C1.50197 0.274698 1.06456 0.429603 0.677083 0.632012L1.34817 2.19345C1.67573 2.04061 2.00329 1.91669 2.33084 1.82168C2.6584 1.72254 2.95999 1.67297 3.23562 1.67297C3.49527 1.67297 3.70099 1.7432 3.85278 1.88364C4.00857 2.01996 4.08647 2.24715 4.08647 2.56522V2.68915L2.954 2.72632C1.9913 2.77176 1.2583 2.97624 0.754978 3.33975C0.251659 3.69913 0 4.25265 0 5.00033C0 5.51255 0.0898783 5.93595 0.269635 6.27055C0.449392 6.60101 0.695059 6.84886 1.00664 7.01409C1.32221 7.17932 1.67573 7.26194 2.0672 7.26194C2.44269 7.26194 2.76026 7.22476 3.01991 7.1504C3.27956 7.08018 3.50925 6.96865 3.70898 6.81581C3.90871 6.65884 4.10444 6.45643 4.29618 6.20858H4.34412L4.78752 7.13801H6.36938V2.53424C6.36938 1.71635 6.1277 1.09053 5.64436 0.656796ZM3.54121 4.02133L4.09845 3.99654V4.54181C4.09845 4.85575 3.99259 5.10979 3.78088 5.30394C3.57316 5.49396 3.3215 5.58896 3.0259 5.58896C2.81419 5.58896 2.64242 5.5332 2.5106 5.42167C2.38277 5.30601 2.31886 5.12425 2.31886 4.8764C2.31886 4.61203 2.40874 4.40756 2.5885 4.26298C2.77225 4.1184 3.08982 4.03785 3.54121 4.02133Z" fill="#5C5C5C"/>
<path d="M15.2254 0.13012H12.7088L10.2821 3.52563V0.13012H7.99917V7.13801H10.2821V3.5814L12.8226 7.13801H15.4291L12.6728 3.48846L15.2254 0.13012Z" fill="#5C5C5C"/>
<path fill-rule="evenodd" clip-rule="evenodd" d="M21.4749 0.656796C20.9916 0.218932 20.3185 0 19.4557 0C18.8565 0 18.3112 0.0557657 17.8199 0.167297C17.3325 0.274698 16.8951 0.429603 16.5077 0.632012L17.1787 2.19345C17.5063 2.04061 17.8339 1.91669 18.1614 1.82168C18.489 1.72254 18.7906 1.67297 19.0662 1.67297C19.3258 1.67297 19.5316 1.7432 19.6834 1.88364C19.8391 2.01996 19.917 2.24715 19.917 2.56522V2.68915L18.7846 2.72632C17.8219 2.77176 17.0889 2.97624 16.5855 3.33975C16.0822 3.69913 15.8306 4.25265 15.8306 5.00033C15.8306 5.51255 15.9204 5.93595 16.1002 6.27055C16.28 6.60101 16.5256 6.84886 16.8372 7.01409C17.1528 7.17932 17.5063 7.26194 17.8978 7.26194C18.2733 7.26194 18.5908 7.22476 18.8505 7.1504C19.1101 7.08018 19.3398 6.96865 19.5395 6.81581C19.7393 6.65884 19.935 6.45643 20.1268 6.20858H20.1747L20.6181 7.13801H22.1999V2.53424C22.1999 1.71635 21.9583 1.09053 21.4749 0.656796ZM19.3718 4.02133L19.929 3.99654V4.54181C19.929 4.85575 19.8232 5.10979 19.6114 5.30394C19.4037 5.49396 19.1521 5.58896 18.8565 5.58896C18.6448 5.58896 18.473 5.5332 18.3412 5.42167C18.2133 5.30601 18.1494 5.12425 18.1494 4.8764C18.1494 4.61203 18.2393 4.40756 18.4191 4.26298C18.6028 4.1184 18.9204 4.03785 19.3718 4.02133Z" fill="#5C5C5C"/>
<path fill-rule="evenodd" clip-rule="evenodd" d="M30.3549 5.38449V0.13012H25.142C25.086 0.803439 24.9942 1.4623 24.8663 2.10671C24.7425 2.75111 24.5867 3.3542 24.399 3.91599C24.2112 4.47365 23.9955 4.96315 23.7518 5.38449H23.1527V9.70324H25.1539V7.13801H29.3543V9.70324H31.3555V5.38449H30.3549ZM26.9096 1.88364H28.072V5.38449H26.0407C26.1965 4.9838 26.3284 4.59551 26.4362 4.21961C26.5481 3.8437 26.6419 3.46574 26.7178 3.0857C26.7937 2.70154 26.8576 2.30085 26.9096 1.88364Z" fill="#5C5C5C"/>
<path fill-rule="evenodd" clip-rule="evenodd" d="M37.0538 0.365575C36.5785 0.125989 36.0132 0.00619619 35.3581 0.00619619C34.695 0.00619619 34.1138 0.138382 33.6145 0.402752C33.1152 0.662992 32.7257 1.06574 32.4461 1.61101C32.1704 2.15214 32.0326 2.84199 32.0326 3.68054C32.0326 4.5067 32.1864 5.18415 32.494 5.71289C32.8016 6.24163 33.223 6.63199 33.7583 6.88397C34.2936 7.13595 34.9027 7.26194 35.5858 7.26194C36.169 7.26194 36.6524 7.22063 37.0359 7.13801C37.4193 7.0554 37.7749 6.92528 38.1024 6.74765V5.0437C37.7269 5.22545 37.3614 5.35971 37.0059 5.44645C36.6544 5.5332 36.2669 5.57657 35.8435 5.57657C35.3601 5.57657 34.9926 5.45471 34.741 5.211C34.4893 4.96728 34.3535 4.65127 34.3335 4.26298H38.5398V3.20343C38.5398 2.49707 38.41 1.90636 38.1503 1.43132C37.8947 0.956279 37.5292 0.601031 37.0538 0.365575ZM34.717 1.89603C34.9087 1.71015 35.1484 1.61721 35.436 1.61721C35.6597 1.61721 35.8455 1.66884 35.9933 1.77211C36.1451 1.87125 36.2589 2.00963 36.3348 2.18726C36.4147 2.36075 36.4566 2.55696 36.4606 2.77589H34.3815C34.4134 2.37521 34.5253 2.08192 34.717 1.89603Z" fill="#5C5C5C"/>
<path d="M48.75 7.13801V0.13012H45.6881L44.34 4.43647L43.0218 0.13012H39.9V7.13801H41.9372V3.78587C41.9372 3.40584 41.9312 3.05679 41.9192 2.73872C41.9073 2.42065 41.8893 2.12323 41.8653 1.84647H41.9013L43.543 7.13801H45.1129L46.7487 1.85886H46.7847C46.7607 2.13149 46.7427 2.42891 46.7307 2.75111C46.7187 3.07331 46.7128 3.40171 46.7128 3.7363V7.13801H48.75Z" fill="#5C5C5C"/>
<path d="M52.5069 2.86264V0.13012H50.4098V7.13801H52.8964L55.5448 2.58381C55.5248 2.75731 55.5088 2.95765 55.4969 3.18484C55.4849 3.40791 55.4749 3.63923 55.4669 3.87882C55.4589 4.1184 55.4549 4.34973 55.4549 4.57279V7.13801H57.5461V0.13012H55.0355L52.411 4.66573C52.419 4.55007 52.427 4.41788 52.435 4.26918C52.447 4.12047 52.457 3.96556 52.465 3.80446C52.477 3.64336 52.4869 3.48226 52.4949 3.32116C52.5029 3.16006 52.5069 3.00722 52.5069 2.86264Z" fill="#5C5C5C"/>
<path fill-rule="evenodd" clip-rule="evenodd" d="M58.2471 7.13801H60.6679L61.9921 4.68432H62.7171V7.13801H65V0.13012H61.7764C60.8736 0.13012 60.1586 0.318071 59.6313 0.693973C59.104 1.06988 58.8403 1.62753 58.8403 2.36695C58.8403 2.72219 58.8923 3.03613 58.9961 3.30877C59.104 3.5814 59.2458 3.81272 59.4215 4.00274C59.5973 4.19276 59.7891 4.34766 59.9968 4.46745L58.2471 7.13801ZM61.321 2.9246C61.1852 2.78416 61.1173 2.62099 61.1173 2.4351C61.1173 2.22856 61.1832 2.053 61.315 1.90843C61.4508 1.75972 61.6705 1.68536 61.9741 1.68536H62.7171V3.13527H62.01C61.6865 3.13527 61.4568 3.06505 61.321 2.9246Z" fill="#5C5C5C"/>
<path d="M0.449392 10.4957V17.2899H0.907771V10.9279H4.53436V17.2899H4.98825V10.4957H0.449392Z" fill="#5C5C5C"/>
<path fill-rule="evenodd" clip-rule="evenodd" d="M10.0439 10.9604C9.66641 10.6506 9.09569 10.4957 8.33172 10.4957H6.7948V17.2899H7.25318V14.483H8.21038C8.61184 14.483 8.96237 14.4381 9.26196 14.3482C9.56155 14.2584 9.81172 14.1267 10.0124 13.9532C10.2132 13.7766 10.363 13.5597 10.4618 13.3026C10.5607 13.0424 10.6101 12.7434 10.6101 12.4057C10.6101 11.7489 10.4214 11.2672 10.0439 10.9604ZM7.25318 10.9186H8.28678C8.91892 10.9186 9.38479 11.0379 9.68439 11.2764C9.98698 11.515 10.1383 11.8976 10.1383 12.4243C10.1383 12.8332 10.0589 13.157 9.9001 13.3955C9.74431 13.6341 9.51961 13.8045 9.22601 13.9067C8.9354 14.009 8.58338 14.0601 8.16994 14.0601H7.25318V10.9186Z" fill="#5C5C5C"/>
<path fill-rule="evenodd" clip-rule="evenodd" d="M17.1173 15.2916C17.2342 14.864 17.2926 14.3947 17.2926 13.8835C17.2926 13.1647 17.1862 12.5451 16.9735 12.0246C16.7638 11.5011 16.4507 11.0983 16.0343 10.8164C15.6209 10.5314 15.1115 10.3888 14.5064 10.3888C13.8832 10.3888 13.3589 10.5345 12.9335 10.8257C12.5111 11.1138 12.192 11.5196 11.9763 12.0432C11.7606 12.5668 11.6527 13.1771 11.6527 13.8742C11.6527 14.3854 11.7096 14.8547 11.8235 15.2823C11.9403 15.7098 12.1141 16.08 12.3448 16.393C12.5785 16.7059 12.8721 16.9491 13.2256 17.1226C13.5821 17.296 13.9985 17.3828 14.4749 17.3828C14.9483 17.3828 15.3617 17.2976 15.7152 17.1272C16.0687 16.9537 16.3623 16.7121 16.596 16.4022C16.8297 16.0893 17.0035 15.7191 17.1173 15.2916ZM12.3852 15.4961C12.2175 15.0313 12.1336 14.4923 12.1336 13.8788C12.1336 13.2654 12.219 12.7295 12.3897 12.2709C12.5635 11.8124 12.8256 11.4561 13.1762 11.2021C13.5297 10.9481 13.9731 10.821 14.5064 10.821C15.2673 10.821 15.8426 11.089 16.232 11.625C16.6215 12.1579 16.8162 12.9107 16.8162 13.8835C16.8162 14.5031 16.7323 15.0437 16.5646 15.5053C16.3998 15.967 16.1436 16.3248 15.7961 16.5788C15.4516 16.8329 15.0127 16.9599 14.4794 16.9599C13.9491 16.9599 13.5102 16.8313 13.1627 16.5742C12.8151 16.3171 12.556 15.9577 12.3852 15.4961Z" fill="#5C5C5C"/>
<path d="M20.3619 11.0534C20.6795 10.9047 21.0405 10.8303 21.445 10.8303C21.6996 10.8303 21.9483 10.8582 22.191 10.914C22.4336 10.9666 22.6703 11.0534 22.901 11.1742L23.0808 10.7606C22.8381 10.6429 22.5804 10.553 22.3078 10.4911C22.0352 10.4291 21.7491 10.3981 21.4495 10.3981C20.9671 10.3981 20.5372 10.4849 20.1597 10.6584C19.7852 10.8319 19.4676 11.0751 19.207 11.388C18.9493 11.7009 18.7531 12.0696 18.6183 12.494C18.4865 12.9153 18.4206 13.3754 18.4206 13.8742C18.4206 14.5806 18.5299 15.1971 18.7486 15.7238C18.9673 16.2504 19.2909 16.6594 19.7193 16.9506C20.1507 17.2387 20.6825 17.3828 21.3146 17.3828C21.6562 17.3828 21.9573 17.3565 22.2179 17.3038C22.4786 17.2542 22.7137 17.1876 22.9235 17.104V16.6857C22.7048 16.7632 22.4666 16.8282 22.2089 16.8809C21.9543 16.9305 21.6697 16.9553 21.3551 16.9553C20.8158 16.9553 20.3634 16.8282 19.9979 16.5742C19.6324 16.3201 19.3583 15.9623 19.1755 15.5007C18.9928 15.036 18.9014 14.4938 18.9014 13.8742C18.9014 13.4343 18.9568 13.0284 19.0677 12.6567C19.1815 12.2818 19.3463 11.958 19.562 11.6854C19.7807 11.4128 20.0474 11.2021 20.3619 11.0534Z" fill="#5C5C5C"/>
<path fill-rule="evenodd" clip-rule="evenodd" d="M26.0063 10.4957H24.2582V17.2899H26.213C26.6564 17.2899 27.0444 17.2217 27.3769 17.0854C27.7125 16.946 27.9731 16.7337 28.1589 16.4487C28.3476 16.1637 28.442 15.8012 28.442 15.3613C28.442 15.0515 28.3896 14.785 28.2847 14.562C28.1828 14.3358 28.0271 14.153 27.8173 14.0136C27.6076 13.8742 27.341 13.7782 27.0174 13.7255V13.693C27.2871 13.6403 27.5133 13.5427 27.696 13.4002C27.8818 13.2546 28.0211 13.0749 28.1139 12.8611C28.2098 12.6474 28.2577 12.4073 28.2577 12.1408C28.2577 11.5708 28.0765 11.1541 27.714 10.8907C27.3515 10.6274 26.7822 10.4957 26.0063 10.4957ZM26.1052 13.5164H24.7165V10.9186H25.9973C26.6235 10.9186 27.0773 11.0178 27.359 11.216C27.6436 11.4143 27.7859 11.7365 27.7859 12.1826C27.7859 12.6226 27.6526 12.9556 27.3859 13.1818C27.1223 13.4048 26.6954 13.5164 26.1052 13.5164ZM24.7165 16.867V13.9346H26.1097C26.5141 13.9346 26.8526 13.9826 27.1253 14.0787C27.4009 14.1716 27.6076 14.3219 27.7454 14.5294C27.8862 14.7339 27.9566 15.005 27.9566 15.3427C27.9566 15.8508 27.8084 16.2319 27.5118 16.4859C27.2152 16.7399 26.7762 16.867 26.195 16.867H24.7165Z" fill="#5C5C5C"/>
<path d="M29.8306 17.2899H33.2819V16.8577H30.289V13.9346H33.1157V13.5024H30.289V10.9279H33.2819V10.4957H29.8306V17.2899Z" fill="#5C5C5C"/>
<path d="M42.508 19V16.8577H41.7979V10.4957H41.335V16.853H38.4994V10.4957H38.0365V16.853H35.1963V10.4957H34.738V17.2899H42.0675V19H42.508Z" fill="#5C5C5C"/>
<path d="M43.7078 17.2899H47.1592V16.8577H44.1662V13.9346H46.9929V13.5024H44.1662V10.9279H47.1592V10.4957H43.7078V17.2899Z" fill="#5C5C5C"/>
<path d="M52.7361 17.2899H53.1945V10.4957H52.7361V13.5071H49.0736V10.4957H48.6152V17.2899H49.0736V13.9439H52.7361V17.2899Z" fill="#5C5C5C"/>
<path d="M55.4414 10.4957H55.001V17.2899H55.4909L59.1894 11.216H59.2163C59.2133 11.2997 59.2088 11.3911 59.2028 11.4902C59.1999 11.5894 59.1969 11.6947 59.1939 11.8062C59.1909 11.9178 59.1879 12.0339 59.1849 12.1548C59.1819 12.2725 59.1804 12.3933 59.1804 12.5172V17.2899H59.6208V10.4957H59.1354L55.4369 16.551H55.4055C55.4145 16.4611 55.4205 16.3666 55.4235 16.2675L55.4324 15.9654C55.4354 15.8601 55.4369 15.7547 55.4369 15.6494C55.4399 15.541 55.4414 15.4341 55.4414 15.3288V10.4957Z" fill="#5C5C5C"/>
<path d="M61.4228 17.2899H64.8742V16.8577H61.8812V13.9346H64.7079V13.5024H61.8812V10.9279H64.8742V10.4957H61.4228V17.2899Z" fill="#5C5C5C"/>
</svg>
