<svg width="75" height="19" viewBox="0 0 75 19" fill="none" xmlns="http://www.w3.org/2000/svg">
<path fill-rule="evenodd" clip-rule="evenodd" d="M16.112 0.9552H22.5316C23.889 0.9552 25.2103 1.38814 26.3004 2.19004L26.4661 2.31196C27.5472 3.1072 28.3129 4.25302 28.63 5.55012L28.6457 5.61428C28.9071 6.68353 28.8386 7.80597 28.449 8.83613C27.9581 10.1339 26.9904 11.1997 25.7401 11.8196L24.3375 12.5149C23.9981 12.6831 23.6451 12.823 23.2823 12.9329L19.7428 14.0052V18.9552H16.112V0.9552ZM19.7428 4.1052V10.8552L23.3704 9.75618C23.673 9.6645 23.9582 9.52349 24.2141 9.33895C24.7697 8.93831 25.1607 8.35224 25.3152 7.68853L25.3658 7.47094C25.3993 7.32732 25.4214 7.18134 25.432 7.03435L25.4386 6.94162C25.4961 6.14385 25.1868 5.36305 24.597 4.81731C24.1026 4.3597 23.4513 4.1052 22.7749 4.1052H19.7428Z" fill="#B4B4B4"/>
<path d="M34.9471 4.5552H29.5008V1.4052H44.0242V4.5552H38.5779V18.9552H34.9471V4.5552Z" fill="#B4B4B4"/>
<path d="M45.8396 1.4052V18.9552H58.5477V15.8052H49.4705V12.6552L55.938 10.9677L55.1437 7.8177L49.4705 9.3927V4.5552H58.3207V1.4052H45.8396Z" fill="#B4B4B4"/>
<path d="M60.4766 1.4052H64.1074V8.2677L65.9228 7.8177L70.348 1.4052H74.5461L68.646 9.6177L75 18.9552H70.5749L65.469 11.1927L64.1074 11.5302V18.9552H60.4766V1.4052Z" fill="#B4B4B4"/>
<path fill-rule="evenodd" clip-rule="evenodd" d="M0.23409 6.16813C0.0786993 6.74035 0 7.33037 0 7.92295V18.9552H3.63086V14.2302L10.4387 12.4302V18.9552H14.0696V7.92295C14.0696 7.33037 13.9909 6.74035 13.8355 6.16813L13.7036 5.6824C13.4232 4.64982 12.869 3.71052 12.0985 2.96221C11.0644 1.95776 9.70067 1.35516 8.25591 1.26422L6.92133 1.1802L5.71854 1.2584C4.26463 1.35293 2.89699 1.97597 1.87761 3.00819C1.16733 3.72744 0.65562 4.61573 0.391682 5.58772L0.23409 6.16813ZM10.4387 9.2802L3.63086 11.0802V7.64834C3.63086 7.23913 3.70009 6.83286 3.83567 6.44636L3.85952 6.37841C4.0081 5.95486 4.24198 5.56567 4.54694 5.23451L4.57586 5.20309C5.03104 4.70882 5.632 4.36969 6.29307 4.23407C6.7078 4.14901 7.13542 4.14629 7.55122 4.22608L7.64399 4.24387C8.31922 4.37346 8.9399 4.70036 9.42622 5.18255C9.79389 5.5471 10.0746 5.99221 10.2454 6.47915C10.3729 6.84255 10.4387 7.22666 10.4387 7.6114V9.2802Z" fill="#B4B4B4"/>
</svg>
