<svg width="52" height="13" viewBox="0 0 52 13" fill="none" xmlns="http://www.w3.org/2000/svg">
<path fill-rule="evenodd" clip-rule="evenodd" d="M11.171 0H15.6219C16.563 0 17.4792 0.312681 18.2349 0.891825L18.3498 0.979879C19.0994 1.55422 19.6302 2.38176 19.8501 3.31855L19.861 3.36489C20.0423 4.13712 19.9948 4.94778 19.7246 5.69178C19.3843 6.6291 18.7134 7.39881 17.8465 7.84648L16.874 8.34868C16.6387 8.47017 16.394 8.57116 16.1424 8.65055L13.6884 9.425V13H11.171V0ZM13.6884 2.275V7.15L16.2035 6.35626C16.4133 6.29005 16.611 6.18821 16.7885 6.05493C17.1737 5.76558 17.4448 5.34231 17.5519 4.86296L17.587 4.70581C17.6101 4.60209 17.6255 4.49666 17.6328 4.39049L17.6374 4.32353C17.6773 3.74736 17.4628 3.18345 17.054 2.7893C16.7111 2.4588 16.2596 2.275 15.7906 2.275H13.6884Z" fill="#5C5C5C"/>
<path d="M24.23 2.6H20.4539V0.325001H30.5235V2.6H26.7474V13H24.23V2.6Z" fill="#5C5C5C"/>
<path d="M31.7822 0.325001V13H40.593V10.725H34.2995V8.45L38.7837 7.23125L38.233 4.95625L34.2995 6.09375V2.6H40.4357V0.325001H31.7822Z" fill="#5C5C5C"/>
<path d="M41.9304 0.325001H44.4478V5.28125L45.7065 4.95625L48.7746 0.325001H51.6853L47.5946 6.25625L52 13H48.9319L45.3918 7.39375L44.4478 7.6375V13H41.9304V0.325001Z" fill="#5C5C5C"/>
<path fill-rule="evenodd" clip-rule="evenodd" d="M0.162302 3.76489C0.0545649 4.17817 0 4.60429 0 5.03226V13H2.5174V9.5875L7.23752 8.2875V13H9.75492V5.03226C9.75492 4.60429 9.70035 4.17817 9.59262 3.76489L9.50117 3.41409C9.30677 2.66834 8.9225 1.98995 8.38831 1.44951C7.6713 0.724068 6.7258 0.288857 5.7241 0.223178L4.79879 0.162499L3.96486 0.218975C2.95681 0.287252 2.00858 0.737221 1.30181 1.48271C0.80935 2.00217 0.454563 2.64372 0.271566 3.34571L0.162302 3.76489ZM7.23752 6.0125L2.5174 7.3125V4.83394C2.5174 4.53839 2.56539 4.24498 2.6594 3.96584L2.67594 3.91676C2.77895 3.61086 2.94111 3.32978 3.15255 3.09061L3.1726 3.06792C3.48819 2.71094 3.90486 2.46602 4.36319 2.36807C4.65074 2.30664 4.94723 2.30467 5.23551 2.3623L5.29983 2.37515C5.76799 2.46874 6.19833 2.70483 6.53551 3.05308C6.79043 3.31637 6.98505 3.63784 7.10349 3.98952C7.19188 4.25198 7.23752 4.52939 7.23752 4.80726V6.0125Z" fill="#5C5C5C"/>
</svg>
