<svg width="100" height="19" viewBox="0 0 100 19" fill="none" xmlns="http://www.w3.org/2000/svg">
<path d="M0 1.5622C0 0.699413 0.618329 0 1.38107 0C1.74735 0 2.09863 0.164566 2.35763 0.457556L11.0519 10.2922C11.2045 10.4648 11.4518 10.4648 11.6043 10.2922L20.2986 0.457556C20.5576 0.164566 20.9089 0 21.2752 0C22.0379 0 22.6562 0.699413 22.6562 1.5622V17.6744C22.6562 18.4065 22.1316 19 21.4844 19C20.8372 19 20.3125 18.4065 20.3125 17.6744V5.48532C20.3125 5.09168 19.8917 4.89454 19.6457 5.17291L12.7092 13.0191C11.9465 13.8819 10.7098 13.8819 9.94706 13.0191L3.0106 5.17291C2.76451 4.89454 2.34375 5.09168 2.34375 5.48532V17.6744C2.34375 18.4065 1.81909 19 1.17188 19C0.524665 19 0 18.4065 0 17.6744V1.5622Z" fill="#5C5C5C"/>
<path d="M34.5703 12.9969C34.5703 12.8798 34.5292 12.7674 34.4559 12.6845L24.9023 1.8779C24.5248 1.45082 24.5248 0.758476 24.9023 0.331396C25.2799 -0.0956846 25.892 -0.0956846 26.2695 0.331396L35.2707 10.5131C35.4232 10.6857 35.6705 10.6857 35.8231 10.5131L44.8242 0.331396C45.2018 -0.0956846 45.8139 -0.0956846 46.1914 0.331396C46.5689 0.758476 46.5689 1.45082 46.1914 1.8779L36.6379 12.6845C36.5646 12.7674 36.5234 12.8798 36.5234 12.9969V17.8953C36.5234 18.5054 36.0862 18.9999 35.5469 18.9999C35.0075 18.9999 34.5703 18.5054 34.5703 17.8953V12.9969Z" fill="#5C5C5C"/>
<path d="M48.4375 2.2093C48.4375 0.989113 49.3119 0 50.3906 0H62.5C63.5787 0 64.4531 0.989113 64.4531 2.2093V17.6744C64.4531 18.4065 63.9285 18.9999 63.2813 18.9999C62.634 18.9999 62.1094 18.4065 62.1094 17.6744V2.65116C62.1094 2.40714 61.9345 2.2093 61.7188 2.2093H51.1719C50.9561 2.2093 50.7813 2.40714 50.7813 2.65116V17.6744C50.7813 18.4065 50.2566 18.9999 49.6094 18.9999C48.9622 18.9999 48.4375 18.4065 48.4375 17.6744V2.2093Z" fill="#5C5C5C"/>
<path d="M66.0156 2.2093C66.0156 0.989113 66.8901 0 67.9687 0H80.0781C81.1568 0 82.0313 0.989113 82.0313 2.2093V17.6744C82.0313 18.4065 81.5066 18.9999 80.8594 18.9999C80.2122 18.9999 79.6875 18.4065 79.6875 17.6744V2.65116C79.6875 2.40714 79.5126 2.2093 79.2969 2.2093H68.75C68.5343 2.2093 68.3594 2.40714 68.3594 2.65116V17.6744C68.3594 18.4065 67.8347 18.9999 67.1875 18.9999C66.5403 18.9999 66.0156 18.4065 66.0156 17.6744V2.2093Z" fill="#5C5C5C"/>
<path d="M83.5938 1.10465C83.5938 0.494557 84.031 0 84.5703 0C85.1097 0 85.5469 0.494557 85.5469 1.10465V14.327C85.5469 14.7302 85.9852 14.9227 86.2258 14.6251L97.6438 0.498764C97.9006 0.181015 98.2637 0 98.6443 0C99.393 0 100 0.686576 100 1.53351V17.8953C100 18.5054 99.5628 18.9999 99.0234 18.9999C98.4841 18.9999 98.0469 18.5054 98.0469 17.8953V4.67296C98.0469 4.26972 97.6085 4.07722 97.368 4.37485L85.95 18.5012C85.6932 18.8189 85.3301 18.9999 84.9495 18.9999C84.2007 18.9999 83.5938 18.3134 83.5938 17.4664V1.10465Z" fill="#5C5C5C"/>
</svg>
