<svg width="148" height="27" viewBox="0 0 148 27" fill="none" xmlns="http://www.w3.org/2000/svg">
<path d="M0 2.21997C0 0.993902 0.915127 0 2.04398 0C2.58608 0 3.10598 0.233856 3.48929 0.650211L16.3568 14.6257C16.5826 14.871 16.9487 14.871 17.1744 14.6257L30.042 0.650211C30.4253 0.233856 30.9452 0 31.4873 0C32.6161 0 33.5312 0.993902 33.5312 2.21997V25.1163C33.5312 26.1566 32.7548 27 31.7969 27C30.839 27 30.0625 26.1566 30.0625 25.1163V7.79493C30.0625 7.23555 29.4398 6.9554 29.0756 7.35098L18.8096 18.5009C17.6807 19.727 15.8505 19.727 14.7217 18.5009L4.45568 7.35098C4.09148 6.9554 3.46875 7.23555 3.46875 7.79493V25.1163C3.46875 26.1566 2.69225 27 1.73438 27C0.776504 27 0 26.1566 0 25.1163V2.21997Z" fill="#B4B4B4"/>
<path d="M51.1641 18.4693C51.1641 18.3028 51.1032 18.1431 50.9947 18.0254L36.8555 2.6686C36.2967 2.06169 36.2967 1.07783 36.8555 0.470931C37.4142 -0.135973 38.3202 -0.135973 38.8789 0.470931L52.2006 14.9397C52.4263 15.1849 52.7924 15.1849 53.0182 14.9397L66.3399 0.470931C66.8986 -0.135973 67.8045 -0.135973 68.3633 0.470931C68.922 1.07783 68.922 2.06169 68.3633 2.6686L54.224 18.0254C54.1156 18.1431 54.0547 18.3028 54.0547 18.4693V25.4302C54.0547 26.2971 53.4076 26.9999 52.6094 26.9999C51.8111 26.9999 51.1641 26.2971 51.1641 25.4302V18.4693Z" fill="#B4B4B4"/>
<path d="M71.6875 3.13953C71.6875 1.40558 72.9817 0 74.5781 0H92.5C94.0965 0 95.3906 1.40558 95.3906 3.13953V25.1162C95.3906 26.1566 94.6141 26.9999 93.6563 26.9999C92.6984 26.9999 91.9219 26.1566 91.9219 25.1162V3.76743C91.9219 3.42067 91.6631 3.13953 91.3438 3.13953H75.7344C75.4151 3.13953 75.1563 3.42067 75.1563 3.76743V25.1162C75.1563 26.1566 74.3798 26.9999 73.4219 26.9999C72.464 26.9999 71.6875 26.1566 71.6875 25.1162V3.13953Z" fill="#B4B4B4"/>
<path d="M97.7031 3.13953C97.7031 1.40558 98.9973 0 100.594 0H118.516C120.112 0 121.406 1.40558 121.406 3.13953V25.1162C121.406 26.1566 120.63 26.9999 119.672 26.9999C118.714 26.9999 117.938 26.1566 117.938 25.1162V3.76743C117.938 3.42067 117.679 3.13953 117.359 3.13953H101.75C101.431 3.13953 101.172 3.42067 101.172 3.76743V25.1162C101.172 26.1566 100.395 26.9999 99.4375 26.9999C98.4796 26.9999 97.7031 26.1566 97.7031 25.1162V3.13953Z" fill="#B4B4B4"/>
<path d="M123.719 1.56976C123.719 0.702791 124.366 0 125.164 0C125.962 0 126.609 0.702791 126.609 1.56976V20.3594C126.609 20.9324 127.258 21.206 127.614 20.783L144.513 0.708769C144.893 0.257232 145.43 0 145.994 0C147.102 0 148 0.97566 148 2.1792V25.4302C148 26.2971 147.353 26.9999 146.555 26.9999C145.756 26.9999 145.109 26.2971 145.109 25.4302V6.64053C145.109 6.0675 144.461 5.79394 144.105 6.21689L127.206 26.2912C126.826 26.7427 126.289 26.9999 125.725 26.9999C124.617 26.9999 123.719 26.0243 123.719 24.8207V1.56976Z" fill="#B4B4B4"/>
</svg>
