<svg width="50" height="36" viewBox="0 0 50 36" fill="none" xmlns="http://www.w3.org/2000/svg">
<path d="M0 5C0 2.23858 2.23858 0 5 0H45C47.7614 0 50 2.23858 50 5V31C50 33.7614 47.7614 36 45 36H5C2.23858 36 0 33.7614 0 31V5Z" fill="#D9D9D9" fill-opacity="0.6"/>
<path d="M5 8C5 6.89543 5.89543 6 7 6H43C44.1046 6 45 6.89543 45 8V9.33333C45 10.4379 44.1046 11.3333 43 11.3333H7C5.89543 11.3333 5 10.4379 5 9.33333V8Z" fill="#004731"/>
<path d="M5 17.3333C5 16.2288 5.89543 15.3333 7 15.3333H43C44.1046 15.3333 45 16.2288 45 17.3333V18.6667C45 19.7712 44.1046 20.6667 43 20.6667H7C5.89543 20.6667 5 19.7712 5 18.6667V17.3333Z" fill="#004731"/>
<path d="M7 24.6667C5.89543 24.6667 5 25.5621 5 26.6667V28C5 29.1046 5.89543 30 7 30H43C44.1046 30 45 29.1046 45 28V26.6667C45 25.5621 44.1046 24.6667 43 24.6667H7Z" fill="#004731"/>
</svg>
