<svg width="522" height="521" viewBox="0 0 522 521" fill="none" xmlns="http://www.w3.org/2000/svg">
<path d="M255.052 224.227H257.944C259.667 224.227 260.938 224.589 261.758 225.313C262.579 226.024 262.989 227.118 262.989 228.595C262.989 229.647 262.75 230.509 262.271 231.179C261.793 231.849 261.116 232.341 260.241 232.655C259.366 232.97 258.334 233.127 257.144 233.127H255.052V224.227Z" fill="#004731"/>
<path d="M199.456 294.382C198.936 292.864 198.676 291.06 198.676 288.968C198.676 286.862 198.936 285.058 199.456 283.554C199.989 282.036 200.816 280.874 201.937 280.067C203.072 279.247 204.535 278.837 206.326 278.837C209.019 278.837 210.954 279.739 212.13 281.544C213.305 283.349 213.893 285.823 213.893 288.968C213.893 291.06 213.633 292.864 213.114 294.382C212.608 295.886 211.795 297.048 210.673 297.868C209.552 298.675 208.089 299.078 206.285 299.078C204.507 299.078 203.058 298.675 201.937 297.868C200.816 297.048 199.989 295.886 199.456 294.382Z" fill="#004731"/>
<path d="M235.262 298.791H233.13V290.731H234.75C236.144 290.731 237.34 290.834 238.339 291.039C239.35 291.244 240.123 291.627 240.656 292.188C241.203 292.748 241.476 293.562 241.476 294.628C241.476 296.159 240.922 297.239 239.815 297.868C238.708 298.483 237.19 298.791 235.262 298.791Z" fill="#004731"/>
<path d="M259.954 279.227H262.845C264.568 279.227 265.839 279.589 266.66 280.313C267.48 281.024 267.89 282.118 267.89 283.595C267.89 284.647 267.651 285.509 267.172 286.179C266.694 286.849 266.017 287.341 265.142 287.655C264.267 287.97 263.235 288.127 262.046 288.127H259.954V279.227Z" fill="#004731"/>
<path d="M292.459 284.559L294.632 291.531H286.819L288.972 284.559C289.068 284.244 289.225 283.718 289.444 282.979C289.663 282.241 289.888 281.462 290.121 280.642C290.367 279.808 290.558 279.11 290.695 278.55C290.832 279.11 291.009 279.773 291.228 280.539C291.461 281.291 291.686 282.036 291.905 282.774C292.137 283.499 292.322 284.094 292.459 284.559Z" fill="#004731"/>
<path fill-rule="evenodd" clip-rule="evenodd" d="M167 166H355V354H167V166ZM217.4 219.018V249H223.757V224.309H234.791V249H241.128V219.018H217.4ZM266.742 221.52C264.964 219.852 262.141 219.018 258.272 219.018H248.695V249H255.052V238.336H257.78C259.967 238.336 261.806 238.069 263.297 237.536C264.787 236.989 265.976 236.251 266.865 235.321C267.767 234.392 268.417 233.332 268.813 232.143C269.21 230.939 269.408 229.682 269.408 228.369C269.408 225.457 268.519 223.174 266.742 221.52ZM275.068 249H292.336V243.75H281.425V236.019H291.577V230.81H281.425V224.227H292.336V219.018H275.068V249ZM296.089 235.178V240.305H307.101V235.178H296.089ZM219.697 295.284C220.271 293.384 220.558 291.278 220.558 288.968C220.558 285.851 220.046 283.137 219.02 280.826C218.008 278.516 216.45 276.725 214.344 275.453C212.253 274.182 209.58 273.546 206.326 273.546C203.058 273.546 200.365 274.182 198.246 275.453C196.127 276.725 194.554 278.516 193.529 280.826C192.517 283.123 192.011 285.823 192.011 288.927C192.011 291.251 192.298 293.363 192.873 295.264C193.447 297.164 194.315 298.798 195.477 300.165C196.653 301.532 198.136 302.585 199.927 303.323C201.718 304.048 203.838 304.41 206.285 304.41C208.732 304.41 210.851 304.048 212.642 303.323C214.433 302.585 215.91 301.532 217.072 300.165C218.248 298.798 219.123 297.171 219.697 295.284ZM226.772 274.018V304H235.508C239.815 304 242.953 303.18 244.922 301.539C246.904 299.898 247.895 297.595 247.895 294.628C247.895 292.864 247.458 291.299 246.583 289.932C245.721 288.551 244.381 287.471 242.563 286.691C240.758 285.912 238.448 285.522 235.631 285.522H233.13V279.268H245.721V274.018H226.772ZM271.643 276.52C269.866 274.852 267.043 274.018 263.173 274.018H253.596V304H259.954V293.336H262.681C264.869 293.336 266.708 293.069 268.198 292.536C269.688 291.989 270.878 291.251 271.766 290.321C272.669 289.392 273.318 288.332 273.714 287.143C274.111 285.939 274.309 284.682 274.309 283.369C274.309 280.457 273.421 278.174 271.643 276.52ZM296.15 296.863L298.324 304H305.173L294.55 273.895H286.778L276.196 304H283.046L285.219 296.863H296.15ZM327.527 285.892C328.963 284.661 329.68 283.041 329.68 281.031C329.68 279.582 329.25 278.304 328.388 277.196C327.541 276.075 326.317 275.193 324.717 274.551C323.118 273.908 321.19 273.587 318.934 273.587C317.212 273.587 315.653 273.724 314.258 273.997C312.864 274.257 311.579 274.633 310.403 275.125C309.241 275.617 308.147 276.198 307.122 276.868L309.89 281.113C311.066 280.375 312.331 279.787 313.684 279.35C315.038 278.898 316.494 278.673 318.052 278.673C319.857 278.673 321.217 278.98 322.133 279.596C323.049 280.197 323.507 281.011 323.507 282.036C323.507 282.856 323.241 283.561 322.708 284.148C322.188 284.723 321.265 285.167 319.939 285.481C318.627 285.782 316.781 285.933 314.402 285.933H311.88V290.896H314.689C317.629 290.896 319.966 291.224 321.703 291.88C323.439 292.536 324.307 293.582 324.307 295.018C324.307 296.426 323.706 297.513 322.503 298.278C321.313 299.044 319.392 299.427 316.74 299.427C315.783 299.427 314.744 299.352 313.623 299.201C312.502 299.037 311.394 298.812 310.3 298.524C309.22 298.224 308.243 297.868 307.368 297.458V302.79C308.653 303.31 310.171 303.713 311.921 304C313.684 304.273 315.701 304.41 317.97 304.41C320.732 304.41 323.049 304.034 324.922 303.282C326.796 302.517 328.211 301.464 329.168 300.124C330.125 298.771 330.603 297.219 330.603 295.469C330.603 293.473 329.865 291.853 328.388 290.608C326.912 289.364 324.806 288.605 322.072 288.332V288.209C324.273 287.895 326.091 287.122 327.527 285.892Z" fill="#004731"/>
<path fill-rule="evenodd" clip-rule="evenodd" d="M153.999 152.615H367.999V366.615H153.999V152.615ZM161.999 160.615H359.999V358.615H161.999V160.615Z" fill="#004731"/>
<path fill-rule="evenodd" clip-rule="evenodd" d="M261 0L521.215 260.215L261 520.431L0.784424 260.215L261 0ZM261 14.1421L507.073 260.215L261 506.288L14.9266 260.215L261 14.1421Z" fill="#004731"/>
</svg>
